<?xml version="1.0" encoding="UTF-8" standalone="no"?>
<svg
   xmlns:dc="http://purl.org/dc/elements/1.1/"
   xmlns:cc="http://creativecommons.org/ns#"
   xmlns:rdf="http://www.w3.org/1999/02/22-rdf-syntax-ns#"
   xmlns:svg="http://www.w3.org/2000/svg"
   xmlns="http://www.w3.org/2000/svg"
   xmlns:xlink="http://www.w3.org/1999/xlink"
   xmlns:sodipodi="http://sodipodi.sourceforge.net/DTD/sodipodi-0.dtd"
   xmlns:inkscape="http://www.inkscape.org/namespaces/inkscape"
   width="256"
   height="256"
   id="svg2"
   version="1.1"
   inkscape:version="1.0.2 (e86c870879, 2021-01-15)"
   sodipodi:docname="icon.svg"
   inkscape:export-xdpi="90"
   inkscape:export-ydpi="90"
   viewBox="0 0 32 32">
  <defs
     id="defs4">
    <linearGradient
       id="linearGradient910">
      <stop
         id="stop902"
         offset="0"
         style="stop-color:#dbdbdb;stop-opacity:1" />
      <stop
         id="stop908"
         offset="1"
         style="stop-color:#fdfdfd;stop-opacity:1" />
    </linearGradient>
    <linearGradient
       inkscape:collect="always"
       xlink:href="#linearGradient910"
       id="linearGradient1252"
       x1="-304.00629"
       y1="515.13519"
       x2="-321.91962"
       y2="564.32373"
       gradientUnits="userSpaceOnUse"
       gradientTransform="translate(1.7566888e-6)" />
    <linearGradient
       inkscape:collect="always"
       xlink:href="#linearGradient910"
       id="linearGradient1274"
       x1="-296.6673"
       y1="564.70953"
       x2="-296.35367"
       y2="603.44647"
       gradientUnits="userSpaceOnUse" />
    <linearGradient
       inkscape:collect="always"
       xlink:href="#linearGradient910"
       id="linearGradient1282"
       x1="-257.84113"
       y1="514.42505"
       x2="-264.04672"
       y2="536.24561"
       gradientUnits="userSpaceOnUse" />
    <linearGradient
       inkscape:collect="always"
       xlink:href="#linearGradient910"
       id="linearGradient1290"
       x1="-259.30295"
       y1="538.47589"
       x2="-255.89838"
       y2="556.20026"
       gradientUnits="userSpaceOnUse"
       gradientTransform="translate(1.7635122,-0.86924778)" />
    <linearGradient
       inkscape:collect="always"
       xlink:href="#linearGradient910"
       id="linearGradient1292"
       x1="-258.80865"
       y1="555.3277"
       x2="-262.83929"
       y2="575.17267"
       gradientUnits="userSpaceOnUse" />
    <linearGradient
       inkscape:collect="always"
       xlink:href="#linearGradient910"
       id="linearGradient1294"
       x1="-262.22183"
       y1="574.59045"
       x2="-261.51715"
       y2="586.64716"
       gradientUnits="userSpaceOnUse" />
    <linearGradient
       inkscape:collect="always"
       xlink:href="#linearGradient910"
       id="linearGradient1296"
       x1="-253.13168"
       y1="585.26416"
       x2="-258.89575"
       y2="603.25397"
       gradientUnits="userSpaceOnUse"
       gradientTransform="translate(-1.7635122)" />
    <linearGradient
       inkscape:collect="always"
       xlink:href="#linearGradient910"
       id="linearGradient1298"
       x1="-330.58551"
       y1="579.15381"
       x2="-335.22717"
       y2="609.93158"
       gradientUnits="userSpaceOnUse" />
    <filter
       inkscape:collect="always"
       style="color-interpolation-filters:sRGB"
       id="filter1084"
       x="-0.047578252"
       width="1.0951565"
       y="-0.048425624"
       height="1.0968512">
      <feGaussianBlur
         inkscape:collect="always"
         stdDeviation="1.997924"
         id="feGaussianBlur1086" />
    </filter>
  </defs>
  <sodipodi:namedview
     id="base"
     pagecolor="#ffffff"
     bordercolor="#666666"
     borderopacity="1.0"
     inkscape:pageopacity="0.0"
     inkscape:pageshadow="2"
     inkscape:zoom="0.7071068"
     inkscape:cx="278.24934"
     inkscape:cy="14.45609"
     inkscape:document-units="px"
     inkscape:current-layer="g5352"
     showgrid="false"
     inkscape:window-width="2031"
     inkscape:window-height="1028"
     inkscape:window-x="385"
     inkscape:window-y="178"
     inkscape:window-maximized="0"
     inkscape:snap-global="false"
     inkscape:snap-nodes="true"
     inkscape:object-nodes="true"
     inkscape:document-rotation="0">
    <inkscape:grid
       type="xygrid"
       id="grid3020"
       empspacing="8"
       visible="true"
       enabled="true"
       snapvisiblegridlinesonly="true"
       spacingx="0.5"
       spacingy="0.5"
       originx="0"
       originy="0" />
    <inkscape:grid
       type="xygrid"
       id="grid3974"
       empspacing="8"
       visible="true"
       enabled="true"
       snapvisiblegridlinesonly="true" />
  </sodipodi:namedview>
  <metadata
     id="metadata7">
    <rdf:RDF>
      <cc:Work
         rdf:about="">
        <dc:format>image/svg+xml</dc:format>
        <dc:type
           rdf:resource="http://purl.org/dc/dcmitype/StillImage" />
        <dc:title />
      </cc:Work>
    </rdf:RDF>
  </metadata>
  <g
     inkscape:label="Layer 1"
     inkscape:groupmode="layer"
     id="layer1"
     transform="translate(0,-1020.3622)">
    <g
       style="display:inline;fill:none;fill-opacity:1;stroke:#000000;stroke-width:2.40757;stroke-linecap:butt;stroke-linejoin:round;stroke-miterlimit:4;stroke-dasharray:none;stroke-opacity:0.209131"
       id="g1028"
       transform="matrix(0.28352512,0,0,0.28760499,99.22189,875.48176)">
      <path
         id="path1012"
         d="m -250.16823,525.53656 c 0,5.99703 -5.04323,10.85727 -11.26436,10.85727 -6.22114,0 -11.26437,-4.86024 -11.26437,-10.85727 0,-5.99636 5.04323,-10.85795 11.26437,-10.85795 6.22113,0 11.26436,4.86159 11.26436,10.85795 z"
         style="fill:none;fill-opacity:1;stroke:#000000;stroke-width:2.40757;stroke-linecap:butt;stroke-linejoin:round;stroke-miterlimit:4;stroke-dasharray:none;stroke-opacity:0.209131"
         inkscape:connector-curvature="0" />
      <path
         sodipodi:nodetypes="ccc"
         inkscape:connector-curvature="0"
         id="path1014"
         d="m -272.77079,561.58996 c -6.34588,-49.61895 4.20451,-38.33639 -70.05115,-51.71919 9.47147,64.51075 2.71771,53.84898 70.05115,51.71919 z"
         style="fill:none;fill-opacity:1;stroke:#000000;stroke-width:2.40757;stroke-linecap:butt;stroke-linejoin:round;stroke-miterlimit:4;stroke-dasharray:none;stroke-opacity:0.209131" />
      <path
         style="fill:none;fill-opacity:1;stroke:#000000;stroke-width:2.40757;stroke-linecap:butt;stroke-linejoin:round;stroke-miterlimit:4;stroke-dasharray:none;stroke-opacity:0.209131"
         d="m -272.69695,565.07087 c -12.15173,45.54142 -4.40668,27.1714 -52.22307,41.60834 10.71299,-45.79941 12.19206,-39.46443 52.22307,-41.60834 z"
         id="path1016"
         inkscape:connector-curvature="0"
         sodipodi:nodetypes="ccc" />
      <path
         style="fill:none;fill-opacity:1;stroke:#000000;stroke-width:2.40757;stroke-linecap:butt;stroke-linejoin:round;stroke-miterlimit:4;stroke-dasharray:none;stroke-opacity:0.209131"
         d="m -269.86146,558.94363 c 3.92756,-22.48785 11.62578,-16.29598 27.60845,-26.11725 -5.61199,24.18498 -2.94111,16.62923 -27.60845,26.11725 z"
         id="path1018"
         inkscape:connector-curvature="0"
         sodipodi:nodetypes="ccc" />
      <path
         sodipodi:nodetypes="ccc"
         inkscape:connector-curvature="0"
         id="path1020"
         d="m -270.76992,573.85478 c 3.64789,-13.71873 -0.9831,-10.0927 25.32436,-19.11377 -10.86645,17.34207 -9.37719,15.49714 -25.32436,19.11377 z"
         style="fill:none;fill-opacity:1;stroke:#000000;stroke-width:2.40757;stroke-linecap:butt;stroke-linejoin:round;stroke-miterlimit:4;stroke-dasharray:none;stroke-opacity:0.209131" />
      <path
         style="fill:none;fill-opacity:1;stroke:#000000;stroke-width:2.40757;stroke-linecap:butt;stroke-linejoin:round;stroke-miterlimit:4;stroke-dasharray:none;stroke-opacity:0.209131;paint-order:markers fill stroke"
         d="m -269.64834,586.46628 c 1.25996,-14.16149 10.04225,-6.20665 21.93472,-19.02912 -6.35018,16.08771 -7.67429,17.13245 -21.93472,19.02912 z"
         id="path1022"
         inkscape:connector-curvature="0"
         sodipodi:nodetypes="ccc" />
      <path
         sodipodi:nodetypes="ccc"
         inkscape:connector-curvature="0"
         id="path1024"
         d="m -267.29486,600.38052 c -1.1465,-9.72586 0.27817,-9.27437 14.84717,-14.97511 -5.15925,20.39031 -4.69062,12.33604 -14.84717,14.97511 z"
         style="fill:none;fill-opacity:1;stroke:#000000;stroke-width:2.40757;stroke-linecap:butt;stroke-linejoin:round;stroke-miterlimit:4;stroke-dasharray:none;stroke-opacity:0.209131" />
      <path
         sodipodi:nodetypes="ccc"
         inkscape:connector-curvature="0"
         id="path1026"
         d="m -320.79262,578.38782 c -8.61564,25.62007 -5.78529,24.90857 -22.2421,30.50114 6.24869,-19.46246 4.22209,-25.86127 22.2421,-30.50114 z"
         style="fill:none;fill-opacity:1;stroke:#000000;stroke-width:2.40757;stroke-linecap:butt;stroke-linejoin:round;stroke-miterlimit:4;stroke-dasharray:none;stroke-opacity:0.209131" />
    </g>
    <g
       style="display:inline;opacity:0.3;fill:#000000;fill-opacity:1;stroke:none;stroke-width:0.87548;stroke-linecap:butt;stroke-linejoin:round;stroke-miterlimit:4;stroke-dasharray:none;stroke-opacity:1;filter:url(#filter1084)"
       id="g1062"
       transform="matrix(0.28352512,0,0,0.28760499,99.22189,875.48176)">
      <path
         id="path1046"
         d="m -250.16823,525.53656 c 0,5.99703 -5.04323,10.85727 -11.26436,10.85727 -6.22114,0 -11.26437,-4.86024 -11.26437,-10.85727 0,-5.99636 5.04323,-10.85795 11.26437,-10.85795 6.22113,0 11.26436,4.86159 11.26436,10.85795 z"
         style="fill:#000000;fill-opacity:1;stroke:none;stroke-width:0.87548;stroke-linecap:butt;stroke-linejoin:round;stroke-miterlimit:4;stroke-dasharray:none;stroke-opacity:1"
         inkscape:connector-curvature="0" />
      <path
         sodipodi:nodetypes="ccc"
         inkscape:connector-curvature="0"
         id="path1048"
         d="m -272.77079,561.58996 c -6.34588,-49.61895 4.20451,-38.33639 -70.05115,-51.71919 9.47147,64.51075 2.71771,53.84898 70.05115,51.71919 z"
         style="fill:#000000;fill-opacity:1;stroke:none;stroke-width:0.87548;stroke-linecap:butt;stroke-linejoin:round;stroke-miterlimit:4;stroke-dasharray:none;stroke-opacity:1" />
      <path
         style="fill:#000000;fill-opacity:1;stroke:none;stroke-width:0.87548;stroke-linecap:butt;stroke-linejoin:round;stroke-miterlimit:4;stroke-dasharray:none;stroke-opacity:1"
         d="m -272.69695,565.07087 c -12.15173,45.54142 -4.40668,27.1714 -52.22307,41.60834 10.71299,-45.79941 12.19206,-39.46443 52.22307,-41.60834 z"
         id="path1050"
         inkscape:connector-curvature="0"
         sodipodi:nodetypes="ccc" />
      <path
         style="fill:#000000;fill-opacity:1;stroke:none;stroke-width:0.87548;stroke-linecap:butt;stroke-linejoin:round;stroke-miterlimit:4;stroke-dasharray:none;stroke-opacity:1"
         d="m -269.86146,558.94363 c 3.92756,-22.48785 11.62578,-16.29598 27.60845,-26.11725 -5.61199,24.18498 -2.94111,16.62923 -27.60845,26.11725 z"
         id="path1052"
         inkscape:connector-curvature="0"
         sodipodi:nodetypes="ccc" />
      <path
         sodipodi:nodetypes="ccc"
         inkscape:connector-curvature="0"
         id="path1054"
         d="m -270.76992,573.85478 c 3.64789,-13.71873 -0.9831,-10.0927 25.32436,-19.11377 -10.86645,17.34207 -9.37719,15.49714 -25.32436,19.11377 z"
         style="fill:#000000;fill-opacity:1;stroke:none;stroke-width:0.87548;stroke-linecap:butt;stroke-linejoin:round;stroke-miterlimit:4;stroke-dasharray:none;stroke-opacity:1" />
      <path
         style="fill:#000000;fill-opacity:1;stroke:none;stroke-width:0.87548;stroke-linecap:butt;stroke-linejoin:round;stroke-miterlimit:4;stroke-dasharray:none;stroke-opacity:1"
         d="m -269.64834,586.46628 c 1.25996,-14.16149 10.04225,-6.20665 21.93472,-19.02912 -6.35018,16.08771 -7.67429,17.13245 -21.93472,19.02912 z"
         id="path1056"
         inkscape:connector-curvature="0"
         sodipodi:nodetypes="ccc" />
      <path
         sodipodi:nodetypes="ccc"
         inkscape:connector-curvature="0"
         id="path1058"
         d="m -267.29486,600.38052 c -1.1465,-9.72586 0.27817,-9.27437 14.84717,-14.97511 -5.15925,20.39031 -4.69062,12.33604 -14.84717,14.97511 z"
         style="fill:#000000;fill-opacity:1;stroke:none;stroke-width:0.87548;stroke-linecap:butt;stroke-linejoin:round;stroke-miterlimit:4;stroke-dasharray:none;stroke-opacity:1" />
      <path
         sodipodi:nodetypes="ccc"
         inkscape:connector-curvature="0"
         id="path1060"
         d="m -320.79262,578.38782 c -8.61564,25.62007 -5.78529,24.90857 -22.2421,30.50114 6.24869,-19.46246 4.22209,-25.86127 22.2421,-30.50114 z"
         style="fill:#000000;fill-opacity:1;stroke:none;stroke-width:0.87548;stroke-linecap:butt;stroke-linejoin:round;stroke-miterlimit:4;stroke-dasharray:none;stroke-opacity:1" />
    </g>
    <g
       style="display:inline;fill:#b3b3b3;stroke:#ffffff;stroke-width:0.87548;stroke-linecap:butt;stroke-linejoin:round;stroke-miterlimit:4;stroke-dasharray:none;stroke-opacity:1"
       id="g5352"
       transform="matrix(0.28352512,0,0,0.28760499,99.22189,875.48176)">
      <path
         id="path4441"
         d="m -250.16823,525.53656 c 0,5.99703 -5.04323,10.85727 -11.26436,10.85727 -6.22114,0 -11.26437,-4.86024 -11.26437,-10.85727 0,-5.99636 5.04323,-10.85795 11.26437,-10.85795 6.22113,0 11.26436,4.86159 11.26436,10.85795 z"
         style="fill:url(#linearGradient1282);fill-opacity:1;stroke:#ffffff;stroke-width:0.87548;stroke-linecap:butt;stroke-linejoin:round;stroke-miterlimit:4;stroke-dasharray:none;stroke-opacity:1"
         inkscape:connector-curvature="0" />
      <path
         sodipodi:nodetypes="ccc"
         inkscape:connector-curvature="0"
         id="path4443"
         d="m -272.77079,561.58996 c -6.34588,-49.61895 4.20451,-38.33639 -70.05115,-51.71919 9.47147,64.51075 2.71771,53.84898 70.05115,51.71919 z"
         style="fill:url(#linearGradient1252);fill-opacity:1;stroke:#ffffff;stroke-width:0.87548;stroke-linecap:butt;stroke-linejoin:round;stroke-miterlimit:4;stroke-dasharray:none;stroke-opacity:1" />
      <path
         style="fill:url(#linearGradient1274);fill-opacity:1;stroke:#ffffff;stroke-width:0.87548;stroke-linecap:butt;stroke-linejoin:round;stroke-miterlimit:4;stroke-dasharray:none;stroke-opacity:1"
         d="m -272.69695,565.07087 c -12.15173,45.54142 -4.40668,27.1714 -52.22307,41.60834 10.71299,-45.79941 12.19206,-39.46443 52.22307,-41.60834 z"
         id="path4445"
         inkscape:connector-curvature="0"
         sodipodi:nodetypes="ccc" />
      <path
         style="fill:url(#linearGradient1290);fill-opacity:1;stroke:#ffffff;stroke-width:0.87548;stroke-linecap:butt;stroke-linejoin:round;stroke-miterlimit:4;stroke-dasharray:none;stroke-opacity:1"
         d="m -269.86146,558.94363 c 3.92756,-22.48785 11.62578,-16.29598 27.60845,-26.11725 -5.61199,24.18498 -2.94111,16.62923 -27.60845,26.11725 z"
         id="path4447"
         inkscape:connector-curvature="0"
         sodipodi:nodetypes="ccc" />
      <path
         sodipodi:nodetypes="ccc"
         inkscape:connector-curvature="0"
         id="path4449"
         d="m -270.76992,573.85478 c 3.64789,-13.71873 -0.9831,-10.0927 25.32436,-19.11377 -10.86645,17.34207 -9.37719,15.49714 -25.32436,19.11377 z"
         style="fill:url(#linearGradient1292);fill-opacity:1;stroke:#ffffff;stroke-width:0.87548;stroke-linecap:butt;stroke-linejoin:round;stroke-miterlimit:4;stroke-dasharray:none;stroke-opacity:1" />
      <path
         style="fill:url(#linearGradient1294);fill-opacity:1;stroke:#ffffff;stroke-width:0.87548;stroke-linecap:butt;stroke-linejoin:round;stroke-miterlimit:4;stroke-dasharray:none;stroke-opacity:1"
         d="m -269.64834,586.46628 c 1.25996,-14.16149 10.04225,-6.20665 21.93472,-19.02912 -6.35018,16.08771 -7.67429,17.13245 -21.93472,19.02912 z"
         id="path4451"
         inkscape:connector-curvature="0"
         sodipodi:nodetypes="ccc" />
      <path
         sodipodi:nodetypes="ccc"
         inkscape:connector-curvature="0"
         id="path4453"
         d="m -267.29486,600.38052 c -1.1465,-9.72586 0.27817,-9.27437 14.84717,-14.97511 -5.15925,20.39031 -4.69062,12.33604 -14.84717,14.97511 z"
         style="fill:url(#linearGradient1296);fill-opacity:1;stroke:#ffffff;stroke-width:0.87548;stroke-linecap:butt;stroke-linejoin:round;stroke-miterlimit:4;stroke-dasharray:none;stroke-opacity:1" />
      <path
         sodipodi:nodetypes="ccc"
         inkscape:connector-curvature="0"
         id="path4455"
         d="m -320.79262,578.38782 c -8.61564,25.62007 -5.78529,24.90857 -22.2421,30.50114 6.24869,-19.46246 4.22209,-25.86127 22.2421,-30.50114 z"
         style="fill:url(#linearGradient1298);fill-opacity:1;stroke:#ffffff;stroke-width:0.87548;stroke-linecap:butt;stroke-linejoin:round;stroke-miterlimit:4;stroke-dasharray:none;stroke-opacity:1" />
    </g>
  </g>
</svg>
