<?xml version="1.0" encoding="UTF-8" standalone="no"?>
<!-- Created with Inkscape (http://www.inkscape.org/) -->

<svg
   width="800"
   height="600"
   id="svg2"
   version="1.1"
   xmlns="http://www.w3.org/2000/svg"
   xmlns:svg="http://www.w3.org/2000/svg"
   xmlns:rdf="http://www.w3.org/1999/02/22-rdf-syntax-ns#"
   xmlns:cc="http://creativecommons.org/ns#"
   xmlns:dc="http://purl.org/dc/elements/1.1/">
  <defs
     id="defs4" />
  <metadata
     id="metadata7">
    <rdf:RDF>
      <cc:Work
         rdf:about="">
        <dc:format>image/svg+xml</dc:format>
        <dc:type
           rdf:resource="http://purl.org/dc/dcmitype/StillImage" />
      </cc:Work>
    </rdf:RDF>
  </metadata>
  <g
     id="g4020"
     transform="matrix(1.0083857,0,0,1.1320755,-5.3752621,-528.71191)"
     style="fill:#252526;fill-opacity:1">
    <rect
       style="fill:#252526;fill-opacity:1;fill-rule:nonzero;stroke:none"
       id="rect3908"
       width="477"
       height="160"
       x="164"
       y="713.36218"
       rx="0"
       ry="0" />
    <rect
       ry="0"
       rx="0"
       y="714.36218"
       x="165"
       height="158"
       width="475"
       id="rect3906"
       style="fill:#252526;fill-opacity:1;fill-rule:nonzero;stroke:none" />
  </g>
  <rect
     y="130"
     x="160"
     height="150"
     width="481"
     id="rect4098"
     style="fill:#2d2d30;fill-opacity:1;fill-rule:nonzero;stroke:none" />
  <g
     id="g4207"
     transform="translate(-114,-31.36218)" />
  <g
     id="close"
     transform="translate(0,-452.36218)">
    <rect
       style="opacity:0;fill:#00ff00;stroke-width:0.927427"
       id="rect1097"
       width="9.9999971"
       height="9.9999857"
       x="620"
       y="555.36218"
       ry="0" />
    <g
       id="g1589"
       style="fill:none;stroke:#000000;stroke-width:1.49935;stroke-miterlimit:4;stroke-dasharray:none;stroke-opacity:1"
       transform="matrix(1.4164015,0,0,1.4164354,-172.43401,304.89096)">
      <path
         id="path4389"
         d="m 560,177.36218 6,6"
         style="fill:none;stroke:#000000;stroke-width:1.49935;stroke-linecap:butt;stroke-linejoin:miter;stroke-miterlimit:4;stroke-dasharray:none;stroke-opacity:1" />
      <path
         id="path4391"
         d="m 566,177.36218 -6,6"
         style="fill:none;stroke:#000000;stroke-width:1.49935;stroke-linecap:butt;stroke-linejoin:miter;stroke-miterlimit:4;stroke-dasharray:none;stroke-opacity:1" />
    </g>
  </g>
  <rect
     ry="0"
     rx="0"
     y="627"
     x="310"
     height="7.9999976"
     width="54"
     id="rect3232"
     style="fill:#515151;fill-opacity:1;fill-rule:nonzero;stroke:none"
     transform="matrix(0,1,1,0,0,0)" />
  <text
     id="text3253"
     y="153"
     x="369"
     style="font-style:normal;font-variant:normal;font-weight:bold;font-stretch:normal;line-height:0%;font-family:Arial;-inkscape-font-specification:'Arial Bold';text-align:start;letter-spacing:0px;word-spacing:0px;writing-mode:lr-tb;text-anchor:start;fill:#eeeeec;fill-opacity:1;stroke:none"
     xml:space="preserve"><tspan
       style="font-style:normal;font-variant:normal;font-weight:bold;font-stretch:normal;font-size:16px;line-height:125%;font-family:Arial;-inkscape-font-specification:'Arial Bold';text-align:start;writing-mode:lr-tb;text-anchor:start;fill:#eeeeec;fill-opacity:1"
       y="153"
       x="369"
       id="tspan3255">Nulloy</tspan></text>
  <g
     transform="matrix(1.1988343,0,0,1.2213409,511.70114,-1167.2022)"
     id="icon"
     style="fill:#000000;fill-opacity:1">
    <path
       id="path3894"
       d="m 14.331069,1039.0629 c 0,0.8926 -0.764728,1.616 -1.708067,1.616 -0.94334,0 -1.708068,-0.7234 -1.708068,-1.616 0,-0.8925 0.764728,-1.6161 1.708068,-1.6161 0.943339,0 1.708067,0.7236 1.708067,1.6161 z"
       style="fill:#000000;fill-opacity:1;stroke:none" />
    <path
       id="path3896"
       d="m 10.871473,1044.4291 c -0.9622548,-7.3853 0.63755,-5.706 -10.622179,-7.6979 1.4362026,9.6018 0.41209884,8.0149 10.622179,7.6979 z"
       style="fill:#000000;fill-opacity:1;stroke:none" />
    <path
       style="fill:#000000;fill-opacity:1;stroke:none"
       d="m 10.914935,1044.9472 c -1.8426231,6.7784 -0.668205,4.0442 -7.9188255,6.193 1.6244605,-6.8168 1.8487387,-5.8739 7.9188255,-6.193 z"
       id="path3898" />
    <path
       style="fill:#000000;fill-opacity:1;stroke:none"
       d="m 11.077482,1044.1646 c 0.595555,-3.3471 1.762871,-2.4255 4.186398,-3.8873 -0.850972,3.5997 -0.445975,2.4751 -4.186398,3.8873 z"
       id="path3900" />
    <path
       id="path3902"
       d="m 11.207139,1046.2546 c 0.553146,-2.0419 -0.149072,-1.5022 3.84005,-2.8449 -1.64773,2.5812 -1.421906,2.3066 -3.84005,2.8449 z"
       style="fill:#000000;fill-opacity:1;stroke:none" />
    <path
       style="fill:#000000;fill-opacity:1;stroke:none"
       d="m 11.37721,1048.1317 c 0.191053,-2.1078 1.522753,-0.9238 3.326063,-2.8323 -0.962907,2.3945 -1.163688,2.55 -3.326063,2.8323 z"
       id="path3904" />
    <path
       id="path3906-2"
       d="m 12.00149,1050.2027 c -0.17385,-1.4476 0.04218,-1.3804 2.251345,-2.2289 -0.782321,3.0349 -0.711261,1.8361 -2.251345,2.2289 z"
       style="fill:#000000;fill-opacity:1;stroke:none" />
    <path
       id="path3908-6"
       d="m 3.6219661,1046.9293 c -1.3064295,3.8133 -0.8772511,3.7074 -3.3726721,4.5398 0.9475169,-2.8968 0.64021428,-3.8492 3.3726721,-4.5398 z"
       style="fill:#000000;fill-opacity:1;stroke:none" />
  </g>
  <rect
     style="fill:#252526;fill-opacity:1;fill-rule:nonzero;stroke:#3f3f43;stroke-opacity:1"
     id="rect3918"
     width="455"
     height="60.104076"
     x="177.5"
     y="161.5"
     rx="0"
     ry="0" />
  <rect
     ry="0"
     rx="0"
     y="104"
     x="240.99982"
     height="11.999998"
     width="12"
     id="stop"
     style="fill:#000000;fill-opacity:1;fill-rule:nonzero;stroke:none" />
  <g
     id="play"
     transform="translate(0,-452.36218)">
    <path
       style="fill:#000000;fill-opacity:1;stroke:none"
       d="m 211.99982,556.36218 v 12 l 11.00018,-6 z"
       id="path3996" />
    <rect
       ry="0"
       rx="0"
       y="556.36218"
       x="211"
       height="11.999998"
       width="12"
       id="rect490"
       style="fill:none;fill-opacity:1;fill-rule:nonzero;stroke:none" />
  </g>
  <path
     style="fill:none;stroke:#ffffff;stroke-width:2;stroke-miterlimit:4;stroke-dasharray:none;stroke-opacity:1"
     id="path4212"
     d="m 211.23075,250 c 0,7.82629 -6.34446,14.17075 -14.17075,14.17075 -7.82628,0 -14.17075,-6.34446 -14.17075,-14.17075 0,-7.82628 6.34447,-14.17074 14.17075,-14.17074 7.82629,0 14.17075,6.34446 14.17075,14.17074 z" />
  <g
     id="next"
     style="fill:#000000;fill-opacity:1"
     transform="translate(-10.000178,-584.36218)">
    <path
       style="fill:#000000;fill-opacity:1;stroke:none"
       d="m 281,688.36218 v 12 l 12,-6 z"
       id="path4133" />
    <rect
       ry="0"
       rx="0"
       y="688.36218"
       x="290"
       height="11.999999"
       width="3"
       id="rect4149"
       style="fill:#000000;fill-opacity:1;fill-rule:nonzero;stroke:none" />
  </g>
  <g
     id="prev"
     style="fill:#000000;fill-opacity:1"
     transform="translate(-12.000178,-584.36218)">
    <path
       id="path4067"
       d="m 325,688.36218 v 12 l -12,-6 z"
       style="fill:#000000;fill-opacity:1;stroke:none" />
    <rect
       transform="scale(-1,1)"
       style="fill:#000000;fill-opacity:1;fill-rule:nonzero;stroke:none"
       id="rect4071"
       width="3"
       height="11.999999"
       x="-316"
       y="688.36218"
       rx="0"
       ry="0" />
  </g>
  <g
     id="pause"
     transform="translate(-35.000178,-584.36218)"
     style="fill:#000000;fill-opacity:1">
    <rect
       transform="scale(-1,1)"
       ry="0"
       rx="0"
       y="688.36218"
       x="-370"
       height="11.999999"
       width="4"
       id="rect3192"
       style="fill:#000000;fill-opacity:1;fill-rule:nonzero;stroke:none" />
    <rect
       style="fill:#000000;fill-opacity:1;fill-rule:nonzero;stroke:none"
       id="rect4053"
       width="4"
       height="11.999999"
       x="-378"
       y="688.36218"
       rx="0"
       ry="0"
       transform="scale(-1,1)" />
  </g>
  <rect
     style="fill:#515151;fill-opacity:1;stroke:none"
     id="rect4328"
     width="95.46154"
     height="10"
     x="520"
     y="248" />
  <rect
     y="248"
     x="520"
     height="10"
     width="62.96154"
     id="rect4332"
     style="fill:#808080;fill-opacity:1;stroke:none" />
  <rect
     y="248"
     x="572"
     height="10"
     width="16.46154"
     id="rect4330"
     style="fill:#ffffff;fill-opacity:1;stroke:none" />
  <g
     id="sizegrip"
     style="fill:#535358;fill-opacity:1"
     transform="translate(0,-270.36218)">
    <rect
       y="724.36218"
       x="635"
       height="1"
       width="1"
       id="rect4360"
       style="fill:#535358;fill-opacity:1;stroke:none" />
    <rect
       y="722.36218"
       x="633"
       height="1"
       width="1"
       id="rect4370"
       style="fill:#535358;fill-opacity:1;stroke:none" />
    <rect
       style="fill:#535358;fill-opacity:1;stroke:none"
       id="rect4376"
       width="1"
       height="1"
       x="631"
       y="724.36218" />
    <rect
       y="722.36218"
       x="629"
       height="1"
       width="1"
       id="rect4378"
       style="fill:#535358;fill-opacity:1;stroke:none" />
    <rect
       style="fill:#535358;fill-opacity:1;stroke:none"
       id="rect4388"
       width="1"
       height="1"
       x="635"
       y="720.36218" />
    <rect
       style="fill:#535358;fill-opacity:1;stroke:none"
       id="rect4390"
       width="1"
       height="1"
       x="633"
       y="718.36218" />
    <rect
       y="720.36218"
       x="631"
       height="1"
       width="1"
       id="rect4392"
       style="fill:#535358;fill-opacity:1;stroke:none" />
    <rect
       style="fill:#535358;fill-opacity:1;stroke:none"
       id="rect4394"
       width="1"
       height="1"
       x="629"
       y="718.36218" />
    <rect
       y="716.36218"
       x="635"
       height="1"
       width="1"
       id="rect4398"
       style="fill:#535358;fill-opacity:1;stroke:none" />
    <rect
       y="714.36218"
       x="633"
       height="1"
       width="1"
       id="rect4400"
       style="fill:#535358;fill-opacity:1;stroke:none" />
    <rect
       style="fill:#535358;fill-opacity:1;stroke:none"
       id="rect4402"
       width="1"
       height="1"
       x="631"
       y="716.36218" />
    <rect
       y="724.36218"
       x="627"
       height="1"
       width="1"
       id="rect4404"
       style="fill:#535358;fill-opacity:1;stroke:none" />
    <rect
       y="720.36218"
       x="627"
       height="1"
       width="1"
       id="rect4406"
       style="fill:#535358;fill-opacity:1;stroke:none" />
    <rect
       style="fill:#535358;fill-opacity:1;stroke:none"
       id="rect4408"
       width="1"
       height="1"
       x="625"
       y="722.36218" />
    <rect
       y="724.36218"
       x="623"
       height="1"
       width="1"
       id="rect4410"
       style="fill:#535358;fill-opacity:1;stroke:none" />
    <rect
       style="fill:#535358;fill-opacity:1;stroke:none"
       id="rect4412"
       width="1"
       height="1"
       x="635"
       y="712.36218" />
    <rect
       y="726.36218"
       x="637"
       height="1"
       width="1"
       id="rect3314"
       style="opacity:0;fill:#535358;fill-opacity:1;stroke:none" />
  </g>
  <g
     id="splitter"
     style="fill:#535358;fill-opacity:1"
     transform="translate(0,-452.36218)">
    <rect
       style="fill:#535358;fill-opacity:1;stroke:none"
       id="rect4444"
       width="1"
       height="1"
       x="408"
       y="727.36218" />
    <rect
       y="729.36218"
       x="406"
       height="1"
       width="1"
       id="rect4446"
       style="fill:#535358;fill-opacity:1;stroke:none" />
    <rect
       style="fill:#535358;fill-opacity:1;stroke:none"
       id="rect4448"
       width="1"
       height="1"
       x="404"
       y="727.36218" />
    <rect
       style="fill:#535358;fill-opacity:1;stroke:none"
       id="rect4464"
       width="1"
       height="1"
       x="402"
       y="729.36218" />
    <rect
       y="727.36218"
       x="400"
       height="1"
       width="1"
       id="rect4468"
       style="fill:#535358;fill-opacity:1;stroke:none" />
    <rect
       style="fill:#535358;fill-opacity:1;stroke:none"
       id="rect4470"
       width="1"
       height="1"
       x="398"
       y="729.36218" />
    <rect
       y="727.36218"
       x="396"
       height="1"
       width="1"
       id="rect4490"
       style="fill:#535358;fill-opacity:1;stroke:none" />
    <rect
       style="fill:#535358;fill-opacity:1;stroke:none"
       id="rect4492"
       width="1"
       height="1"
       x="394"
       y="729.36218" />
    <rect
       y="727.36218"
       x="392"
       height="1"
       width="1"
       id="rect4494"
       style="fill:#535358;fill-opacity:1;stroke:none" />
    <rect
       y="729.36218"
       x="390"
       height="1"
       width="1"
       id="rect4496"
       style="fill:#535358;fill-opacity:1;stroke:none" />
    <rect
       style="fill:#535358;fill-opacity:1;stroke:none"
       id="rect4498"
       width="1"
       height="1"
       x="388"
       y="727.36218" />
    <rect
       y="729.36218"
       x="386"
       height="1"
       width="1"
       id="rect4500"
       style="fill:#535358;fill-opacity:1;stroke:none" />
    <rect
       style="fill:#535358;fill-opacity:1;stroke:none"
       id="rect4516"
       width="1"
       height="1"
       x="382"
       y="729.36218" />
    <rect
       y="727.36218"
       x="380"
       height="1"
       width="1"
       id="rect4518"
       style="fill:#535358;fill-opacity:1;stroke:none" />
    <rect
       style="fill:#535358;fill-opacity:1;stroke:none"
       id="rect4526"
       width="1"
       height="1"
       x="384"
       y="727.36218" />
    <rect
       y="729.36218"
       x="410"
       height="1"
       width="1"
       id="rect4528"
       style="fill:#535358;fill-opacity:1;stroke:none" />
  </g>
  <g
     id="g30864"
     transform="translate(-11.75,-545.86218)">
    <rect
       style="fill:#444444;fill-opacity:1;stroke:none"
       id="rect19262"
       width="1"
       height="1"
       x="209.75"
       y="754.86218" />
    <rect
       style="fill:#444444;fill-opacity:1;stroke:none"
       id="rect19264"
       width="1"
       height="1"
       x="211.75"
       y="754.86218" />
    <rect
       style="fill:#444444;fill-opacity:1;stroke:none"
       id="rect19266"
       width="1"
       height="1"
       x="211.75"
       y="756.86218" />
    <rect
       style="fill:#444444;fill-opacity:1;stroke:none"
       id="rect19268"
       width="1"
       height="1"
       x="209.75"
       y="756.86218" />
    <rect
       y="754.86218"
       x="213.75"
       height="1"
       width="1"
       id="rect19270"
       style="fill:#444444;fill-opacity:1;stroke:none" />
    <rect
       y="756.86218"
       x="213.75"
       height="1"
       width="1"
       id="rect19276"
       style="fill:#444444;fill-opacity:1;stroke:none" />
    <rect
       y="758.86218"
       x="209.75"
       height="1"
       width="1"
       id="rect19278"
       style="fill:#444444;fill-opacity:1;stroke:none" />
    <rect
       y="758.86218"
       x="211.75"
       height="1"
       width="1"
       id="rect19280"
       style="fill:#444444;fill-opacity:1;stroke:none" />
    <rect
       y="760.86218"
       x="211.75"
       height="1"
       width="1"
       id="rect19282"
       style="fill:#444444;fill-opacity:1;stroke:none" />
    <rect
       y="760.86218"
       x="209.75"
       height="1"
       width="1"
       id="rect19284"
       style="fill:#444444;fill-opacity:1;stroke:none" />
    <rect
       style="fill:#444444;fill-opacity:1;stroke:none"
       id="rect19286"
       width="1"
       height="1"
       x="213.75"
       y="758.86218" />
    <rect
       style="fill:#444444;fill-opacity:1;stroke:none"
       id="rect19292"
       width="1"
       height="1"
       x="213.75"
       y="760.86218" />
    <rect
       style="fill:#444444;fill-opacity:1;stroke:none"
       id="rect19302"
       width="1"
       height="1"
       x="205.75"
       y="754.86218" />
    <rect
       style="fill:#444444;fill-opacity:1;stroke:none"
       id="rect19304"
       width="1"
       height="1"
       x="207.75"
       y="754.86218" />
    <rect
       style="fill:#444444;fill-opacity:1;stroke:none"
       id="rect19306"
       width="1"
       height="1"
       x="207.75"
       y="756.86218" />
    <rect
       style="fill:#444444;fill-opacity:1;stroke:none"
       id="rect19308"
       width="1"
       height="1"
       x="205.75"
       y="756.86218" />
    <rect
       y="758.86218"
       x="205.75"
       height="1"
       width="1"
       id="rect19318"
       style="fill:#444444;fill-opacity:1;stroke:none" />
    <rect
       y="758.86218"
       x="207.75"
       height="1"
       width="1"
       id="rect19320"
       style="fill:#444444;fill-opacity:1;stroke:none" />
    <rect
       y="760.86218"
       x="207.75"
       height="1"
       width="1"
       id="rect19322"
       style="fill:#444444;fill-opacity:1;stroke:none" />
    <rect
       y="760.86218"
       x="205.75"
       height="1"
       width="1"
       id="rect19324"
       style="fill:#444444;fill-opacity:1;stroke:none" />
    <rect
       y="762.86218"
       x="205.75"
       height="1"
       width="1"
       id="rect19334"
       style="fill:#444444;fill-opacity:1;stroke:none" />
    <rect
       y="762.86218"
       x="207.75"
       height="1"
       width="1"
       id="rect19336"
       style="fill:#444444;fill-opacity:1;stroke:none" />
    <rect
       y="763.86218"
       x="214.75"
       height="1"
       width="1"
       id="rect19340"
       style="opacity:0;fill:#444444;fill-opacity:1;stroke:none" />
    <rect
       y="762.86218"
       x="209.75"
       height="1"
       width="1"
       id="rect19358"
       style="fill:#444444;fill-opacity:1;stroke:none" />
    <rect
       y="762.86218"
       x="211.75"
       height="1"
       width="1"
       id="rect19360"
       style="fill:#444444;fill-opacity:1;stroke:none" />
    <rect
       style="fill:#444444;fill-opacity:1;stroke:none"
       id="rect19366"
       width="1"
       height="1"
       x="213.75"
       y="762.86218" />
  </g>
  <path
     style="fill:#000000;fill-opacity:1"
     d="m 422,101 v 2 h -10 c -2.00001,0 -4.02409,2.00015 -4,4 v 5 l 3,-3 v -1 c -4e-5,-1 0,-2 1,-2 h 10 v 2 l 4,-3.5 z m 4,7 -3,3 v 1 c 4e-5,1 -1,2 -2,2 h -9 v -2 l -4,3.5 4,3.5 v -2 h 10 c 2.00001,0 4,-2 4,-4 z"
     id="repeat" />
  <path
     style="fill:#000000;fill-opacity:1"
     d="m 387,101 v 2 h -2 c -4.30373,0 -5.7722,10 -9,10 h -3 v 3 h 4 c 4.30371,0 5.7722,-10 9,-10 h 1 v 2 l 4,-3.4375 z m -14,3 v 3 h 3 c 0.80695,0 1.49743,0.625 2.15625,1.5625 l 1.65625,-2.96875 C 379.01241,104.63798 378.08848,104 377,104 Z m 10.21875,7.46875 -1.65625,3.0625 C 382.51774,115.94999 383.60594,117 385,117 h 2 v 2 l 4,-3.5625 L 387,112 v 2 h -1 c -1.06134,0 -1.937,-1.0799 -2.78125,-2.53125 z"
     id="shuffle" />
  <g
     id="theme"
     transform="matrix(1.0023215,0,0,1.0026643,-26.112209,-452.85253)">
    <path
       transform="matrix(0.93022772,0,0,0.93022772,61.672479,459.32147)"
       d="m 454.13934,107.54432 c 0,3.63676 -2.94817,6.58493 -6.58493,6.58493 -3.63675,0 -6.58493,-2.94817 -6.58493,-6.58493 0,-3.63676 2.94818,-6.58493 6.58493,-6.58493 3.63676,0 6.58493,2.94817 6.58493,6.58493 z"
       id="path3092"
       style="fill:none;stroke:#000000;stroke-width:1.84002;stroke-miterlimit:4;stroke-dasharray:none;stroke-opacity:1" />
    <path
       style="fill:#000000;fill-opacity:1;stroke:none"
       id="path3875"
       d="m 447.55441,114.12925 c -3.63675,0 -6.58493,-2.94817 -6.58493,-6.58493 0,-3.63676 2.94818,-6.58493 6.58493,-6.58493 0,0 0,0 0,0 v 6.58493 z"
       transform="matrix(0.93022772,0,0,0.93022772,61.672479,459.32147)" />
  </g>
  <g
     id="g3129"
     transform="translate(3,-452.36218)">
    <path
       id="path4423-2"
       d="m 535,564.36218 h 12"
       style="fill:none;stroke:#000000;stroke-width:1.99684;stroke-linecap:butt;stroke-linejoin:miter;stroke-miterlimit:4;stroke-dasharray:none;stroke-opacity:1" />
    <path
       style="fill:none;stroke:#000000;stroke-width:1.99684;stroke-linecap:butt;stroke-linejoin:miter;stroke-miterlimit:4;stroke-dasharray:none;stroke-opacity:1"
       d="m 535,560.36218 h 12"
       id="path3125" />
    <path
       id="path3127"
       d="m 535,556.36218 h 12"
       style="fill:none;stroke:#000000;stroke-width:1.99684;stroke-linecap:butt;stroke-linejoin:miter;stroke-miterlimit:4;stroke-dasharray:none;stroke-opacity:1" />
  </g>
  <g
     id="minimize"
     transform="translate(0,-452.36218)">
    <rect
       style="opacity:0;fill:#00ff00;stroke-width:0.927427"
       id="rect2552"
       width="10"
       height="9.9999857"
       x="599"
       y="555.36218"
       ry="0" />
    <rect
       style="opacity:1;fill:#000000;fill-opacity:1"
       id="rect2954"
       width="10"
       height="2"
       x="599"
       y="563.36218" />
  </g>
</svg>
