<?xml version="1.0" encoding="UTF-8" standalone="no"?>
<!-- Created with Inkscape (http://www.inkscape.org/) -->

<svg
   xmlns:dc="http://purl.org/dc/elements/1.1/"
   xmlns:cc="http://creativecommons.org/ns#"
   xmlns:rdf="http://www.w3.org/1999/02/22-rdf-syntax-ns#"
   xmlns:svg="http://www.w3.org/2000/svg"
   xmlns="http://www.w3.org/2000/svg"
   xmlns:sodipodi="http://sodipodi.sourceforge.net/DTD/sodipodi-0.dtd"
   xmlns:inkscape="http://www.inkscape.org/namespaces/inkscape"
   width="800"
   height="600"
   id="svg2"
   version="1.1"
   inkscape:version="0.48.3.1 r9886"
   sodipodi:docname="design.svg"
   inkscape:export-filename="minimize.png"
   inkscape:export-xdpi="90"
   inkscape:export-ydpi="90">
  <defs
     id="defs4" />
  <sodipodi:namedview
     id="base"
     pagecolor="#ffffff"
     bordercolor="#666666"
     borderopacity="1.0"
     inkscape:pageopacity="0.0"
     inkscape:pageshadow="2"
     inkscape:zoom="16"
     inkscape:cx="536.13612"
     inkscape:cy="476.57815"
     inkscape:document-units="px"
     inkscape:current-layer="layer1"
     showgrid="true"
     inkscape:snap-global="false"
     inkscape:snap-grids="true"
     inkscape:window-width="1977"
     inkscape:window-height="1291"
     inkscape:window-x="246"
     inkscape:window-y="67"
     inkscape:window-maximized="0"
     showguides="false"
     inkscape:guide-bbox="true"
     inkscape:snap-to-guides="false"
     inkscape:snap-page="false"
     inkscape:snap-nodes="true">
    <inkscape:grid
       type="xygrid"
       id="grid3002"
       empspacing="5"
       visible="true"
       enabled="true"
       snapvisiblegridlinesonly="true" />
  </sodipodi:namedview>
  <metadata
     id="metadata7">
    <rdf:RDF>
      <cc:Work
         rdf:about="">
        <dc:format>image/svg+xml</dc:format>
        <dc:type
           rdf:resource="http://purl.org/dc/dcmitype/StillImage" />
        <dc:title></dc:title>
      </cc:Work>
    </rdf:RDF>
  </metadata>
  <g
     inkscape:label="Layer 1"
     inkscape:groupmode="layer"
     id="layer1"
     transform="translate(0,-452.36218)">
    <g
       id="g4020"
       transform="matrix(1.0083857,0,0,1.1320755,-5.3752621,-76.349733)"
       style="fill:#252526;fill-opacity:1">
      <rect
         style="fill:#252526;fill-opacity:1;fill-rule:nonzero;stroke:none"
         id="rect3908"
         width="477"
         height="160"
         x="164"
         y="713.36218"
         rx="0"
         ry="0" />
      <rect
         ry="0"
         rx="0"
         y="714.36218"
         x="165"
         height="158"
         width="475"
         id="rect3906"
         style="fill:#252526;fill-opacity:1;fill-rule:nonzero;stroke:none" />
    </g>
    <rect
       y="582.36218"
       x="160"
       height="150"
       width="481"
       id="rect4098"
       style="fill:#2d2d30;fill-opacity:1;fill-rule:nonzero;stroke:none" />
    <g
       id="g4207"
       transform="translate(-114,421)" />
    <g
       id="g4393"
       style="fill:none;stroke:#000000;stroke-width:1.49935162000000011;stroke-miterlimit:4;stroke-opacity:1;stroke-dasharray:none"
       transform="matrix(1.3339099,0,0,1.3339099,-126.98954,318.77701)"
       inkscape:export-filename="close.png"
       inkscape:export-xdpi="96.806725"
       inkscape:export-ydpi="96.806725">
      <path
         inkscape:connector-curvature="0"
         id="path4389"
         d="m 560,177.36218 6,6"
         style="fill:none;stroke:#000000;stroke-width:1.49935162000000011;stroke-linecap:butt;stroke-linejoin:miter;stroke-miterlimit:4;stroke-opacity:1;stroke-dasharray:none"
         sodipodi:nodetypes="cc" />
      <path
         inkscape:connector-curvature="0"
         id="path4391"
         d="m 566,177.36218 -6,6"
         style="fill:none;stroke:#000000;stroke-width:1.49935162000000011;stroke-linecap:butt;stroke-linejoin:miter;stroke-miterlimit:4;stroke-opacity:1;stroke-dasharray:none"
         sodipodi:nodetypes="cc" />
    </g>
    <rect
       ry="0"
       rx="0"
       y="627"
       x="762.36218"
       height="7.9999976"
       width="54"
       id="rect3232"
       style="fill:#515151;fill-opacity:1;fill-rule:nonzero;stroke:none"
       transform="matrix(0,1,1,0,0,0)"
       inkscape:export-filename="scrollbar_handle.png"
       inkscape:export-xdpi="90"
       inkscape:export-ydpi="90" />
    <text
       sodipodi:linespacing="125%"
       id="text3253"
       y="605.36218"
       x="369"
       style="font-size:16px;font-style:normal;font-variant:normal;font-weight:bold;font-stretch:normal;text-align:start;line-height:125%;letter-spacing:0px;word-spacing:0px;writing-mode:lr-tb;text-anchor:start;fill:#eeeeec;fill-opacity:1;stroke:none;font-family:Arial;-inkscape-font-specification:Arial Bold"
       xml:space="preserve"><tspan
         style="font-size:16px;font-style:normal;font-variant:normal;font-weight:bold;font-stretch:normal;text-align:start;line-height:125%;writing-mode:lr-tb;text-anchor:start;fill:#eeeeec;fill-opacity:1;font-family:Arial;-inkscape-font-specification:Arial Bold"
         y="605.36218"
         x="369"
         id="tspan3255"
         sodipodi:role="line">Nulloy</tspan></text>
    <g
       transform="matrix(1.1988343,0,0,1.2213409,511.70114,-714.84003)"
       id="g3892"
       style="fill:#000000;fill-opacity:1"
       inkscape:export-filename="icon.png"
       inkscape:export-xdpi="90"
       inkscape:export-ydpi="90">
      <path
         id="path3894"
         d="m 14.331069,1039.0629 c 0,0.8926 -0.764728,1.616 -1.708067,1.616 -0.94334,0 -1.708068,-0.7234 -1.708068,-1.616 0,-0.8925 0.764728,-1.6161 1.708068,-1.6161 0.943339,0 1.708067,0.7236 1.708067,1.6161 z"
         style="fill:#000000;fill-opacity:1;stroke:none"
         inkscape:connector-curvature="0" />
      <path
         sodipodi:nodetypes="ccc"
         inkscape:connector-curvature="0"
         id="path3896"
         d="m 10.871473,1044.4291 c -0.9622548,-7.3853 0.63755,-5.706 -10.622179,-7.6979 1.4362026,9.6018 0.41209884,8.0149 10.622179,7.6979 z"
         style="fill:#000000;fill-opacity:1;stroke:none" />
      <path
         style="fill:#000000;fill-opacity:1;stroke:none"
         d="m 10.914935,1044.9472 c -1.8426231,6.7784 -0.668205,4.0442 -7.9188255,6.193 1.6244605,-6.8168 1.8487387,-5.8739 7.9188255,-6.193 z"
         id="path3898"
         inkscape:connector-curvature="0"
         sodipodi:nodetypes="ccc" />
      <path
         style="fill:#000000;fill-opacity:1;stroke:none"
         d="m 11.077482,1044.1646 c 0.595555,-3.3471 1.762871,-2.4255 4.186398,-3.8873 -0.850972,3.5997 -0.445975,2.4751 -4.186398,3.8873 z"
         id="path3900"
         inkscape:connector-curvature="0"
         sodipodi:nodetypes="ccc" />
      <path
         sodipodi:nodetypes="ccc"
         inkscape:connector-curvature="0"
         id="path3902"
         d="m 11.207139,1046.2546 c 0.553146,-2.0419 -0.149072,-1.5022 3.84005,-2.8449 -1.64773,2.5812 -1.421906,2.3066 -3.84005,2.8449 z"
         style="fill:#000000;fill-opacity:1;stroke:none" />
      <path
         style="fill:#000000;fill-opacity:1;stroke:none"
         d="m 11.37721,1048.1317 c 0.191053,-2.1078 1.522753,-0.9238 3.326063,-2.8323 -0.962907,2.3945 -1.163688,2.55 -3.326063,2.8323 z"
         id="path3904"
         inkscape:connector-curvature="0"
         sodipodi:nodetypes="ccc" />
      <path
         sodipodi:nodetypes="ccc"
         inkscape:connector-curvature="0"
         id="path3906-2"
         d="m 12.00149,1050.2027 c -0.17385,-1.4476 0.04218,-1.3804 2.251345,-2.2289 -0.782321,3.0349 -0.711261,1.8361 -2.251345,2.2289 z"
         style="fill:#000000;fill-opacity:1;stroke:none" />
      <path
         sodipodi:nodetypes="ccc"
         inkscape:connector-curvature="0"
         id="path3908-6"
         d="m 3.6219661,1046.9293 c -1.3064295,3.8133 -0.8772511,3.7074 -3.3726721,4.5398 0.9475169,-2.8968 0.64021428,-3.8492 3.3726721,-4.5398 z"
         style="fill:#000000;fill-opacity:1;stroke:none" />
    </g>
    <rect
       style="fill:#252526;fill-opacity:1;fill-rule:nonzero;stroke:#3f3f43;stroke-opacity:1"
       id="rect3918"
       width="455"
       height="60.104076"
       x="177.5"
       y="613.86218"
       rx="0"
       ry="0" />
    <rect
       ry="0"
       rx="0"
       y="556.36218"
       x="240.99982"
       height="11.999998"
       width="12"
       id="rect4016"
       style="fill:#000000;fill-opacity:1;fill-rule:nonzero;stroke:none"
       inkscape:export-filename="stop.png"
       inkscape:export-xdpi="90"
       inkscape:export-ydpi="90" />
    <path
       sodipodi:nodetypes="cccc"
       style="fill:#000000;fill-opacity:1;stroke:none"
       d="m 211.99982,556.36218 0,12 12,-6 z"
       id="path3996"
       inkscape:connector-curvature="0"
       inkscape:export-filename="play.png"
       inkscape:export-xdpi="90"
       inkscape:export-ydpi="90" />
    <path
       sodipodi:type="arc"
       style="fill:none;stroke:#ffffff;stroke-width:2.822716;stroke-miterlimit:4;stroke-opacity:1;stroke-dasharray:none"
       id="path4212"
       sodipodi:cx="213"
       sodipodi:cy="256"
       sodipodi:rx="20"
       sodipodi:ry="20"
       d="m 233,256 c 0,11.04569 -8.95431,20 -20,20 -11.04569,0 -20,-8.95431 -20,-20 0,-11.04569 8.95431,-20 20,-20 11.04569,0 20,8.95431 20,20 z"
       transform="matrix(0.70853744,0,0,0.70853744,46.141526,520.9766)" />
    <g
       id="g4200"
       style="fill:#000000;fill-opacity:1"
       transform="translate(-10.000178,-132)"
       inkscape:export-filename="next.png"
       inkscape:export-xdpi="90"
       inkscape:export-ydpi="90">
      <path
         sodipodi:nodetypes="cccc"
         style="fill:#000000;fill-opacity:1;stroke:none"
         d="m 281,688.36218 0,12 12,-6 z"
         id="path4133"
         inkscape:connector-curvature="0" />
      <rect
         ry="0"
         rx="0"
         y="688.36218"
         x="290"
         height="11.999999"
         width="3"
         id="rect4149"
         style="fill:#000000;fill-opacity:1;fill-rule:nonzero;stroke:none" />
    </g>
    <g
       id="g4204"
       style="fill:#000000;fill-opacity:1"
       transform="translate(-12.000178,-132)"
       inkscape:export-filename="prev.png"
       inkscape:export-xdpi="90"
       inkscape:export-ydpi="90">
      <path
         inkscape:connector-curvature="0"
         id="path4067"
         d="m 325,688.36218 0,12 -12,-6 z"
         style="fill:#000000;fill-opacity:1;stroke:none"
         sodipodi:nodetypes="cccc" />
      <rect
         transform="scale(-1,1)"
         style="fill:#000000;fill-opacity:1;fill-rule:nonzero;stroke:none"
         id="rect4071"
         width="3"
         height="11.999999"
         x="-316"
         y="688.36218"
         rx="0"
         ry="0" />
    </g>
    <g
       id="g4242"
       transform="translate(-35.000178,-132)"
       style="fill:#000000;fill-opacity:1"
       inkscape:export-filename="pause.png"
       inkscape:export-xdpi="90"
       inkscape:export-ydpi="90">
      <rect
         transform="scale(-1,1)"
         ry="0"
         rx="0"
         y="688.36218"
         x="-370"
         height="11.999999"
         width="4"
         id="rect3192"
         style="fill:#000000;fill-opacity:1;fill-rule:nonzero;stroke:none" />
      <rect
         style="fill:#000000;fill-opacity:1;fill-rule:nonzero;stroke:none"
         id="rect4053"
         width="4"
         height="11.999999"
         x="-378"
         y="688.36218"
         rx="0"
         ry="0"
         transform="scale(-1,1)" />
    </g>
    <rect
       style="fill:#515151;fill-opacity:1;stroke:none"
       id="rect4328"
       width="95.46154"
       height="10"
       x="520"
       y="700.36218" />
    <rect
       y="700.36218"
       x="520"
       height="10"
       width="62.96154"
       id="rect4332"
       style="fill:#808080;fill-opacity:1;stroke:none" />
    <rect
       y="700.36218"
       x="572"
       height="10"
       width="16.46154"
       id="rect4330"
       style="fill:#ffffff;fill-opacity:1;stroke:none" />
    <g
       id="g4414"
       style="fill:#535358;fill-opacity:1"
       transform="translate(0,182)"
       inkscape:export-filename="sizegrip.png"
       inkscape:export-xdpi="90"
       inkscape:export-ydpi="90">
      <rect
         y="724.36218"
         x="635"
         height="1"
         width="1"
         id="rect4360"
         style="fill:#535358;fill-opacity:1;stroke:none" />
      <rect
         y="722.36218"
         x="633"
         height="1"
         width="1"
         id="rect4370"
         style="fill:#535358;fill-opacity:1;stroke:none" />
      <rect
         style="fill:#535358;fill-opacity:1;stroke:none"
         id="rect4376"
         width="1"
         height="1"
         x="631"
         y="724.36218" />
      <rect
         y="722.36218"
         x="629"
         height="1"
         width="1"
         id="rect4378"
         style="fill:#535358;fill-opacity:1;stroke:none" />
      <rect
         style="fill:#535358;fill-opacity:1;stroke:none"
         id="rect4388"
         width="1"
         height="1"
         x="635"
         y="720.36218" />
      <rect
         style="fill:#535358;fill-opacity:1;stroke:none"
         id="rect4390"
         width="1"
         height="1"
         x="633"
         y="718.36218" />
      <rect
         y="720.36218"
         x="631"
         height="1"
         width="1"
         id="rect4392"
         style="fill:#535358;fill-opacity:1;stroke:none" />
      <rect
         style="fill:#535358;fill-opacity:1;stroke:none"
         id="rect4394"
         width="1"
         height="1"
         x="629"
         y="718.36218" />
      <rect
         y="716.36218"
         x="635"
         height="1"
         width="1"
         id="rect4398"
         style="fill:#535358;fill-opacity:1;stroke:none" />
      <rect
         y="714.36218"
         x="633"
         height="1"
         width="1"
         id="rect4400"
         style="fill:#535358;fill-opacity:1;stroke:none" />
      <rect
         style="fill:#535358;fill-opacity:1;stroke:none"
         id="rect4402"
         width="1"
         height="1"
         x="631"
         y="716.36218" />
      <rect
         y="724.36218"
         x="627"
         height="1"
         width="1"
         id="rect4404"
         style="fill:#535358;fill-opacity:1;stroke:none" />
      <rect
         y="720.36218"
         x="627"
         height="1"
         width="1"
         id="rect4406"
         style="fill:#535358;fill-opacity:1;stroke:none" />
      <rect
         style="fill:#535358;fill-opacity:1;stroke:none"
         id="rect4408"
         width="1"
         height="1"
         x="625"
         y="722.36218" />
      <rect
         y="724.36218"
         x="623"
         height="1"
         width="1"
         id="rect4410"
         style="fill:#535358;fill-opacity:1;stroke:none" />
      <rect
         style="fill:#535358;fill-opacity:1;stroke:none"
         id="rect4412"
         width="1"
         height="1"
         x="635"
         y="712.36218" />
      <rect
         y="726.36218"
         x="637"
         height="1"
         width="1"
         id="rect3314"
         style="fill:#535358;fill-opacity:1;stroke:none;opacity:0" />
    </g>
    <g
       id="g4530"
       inkscape:export-filename="splitter.png"
       inkscape:export-xdpi="90"
       inkscape:export-ydpi="90"
       style="fill:#535358;fill-opacity:1">
      <rect
         inkscape:export-ydpi="90"
         inkscape:export-xdpi="90"
         inkscape:export-filename="splitter.png"
         style="fill:#535358;fill-opacity:1;stroke:none"
         id="rect4444"
         width="1"
         height="1"
         x="408"
         y="727.36218" />
      <rect
         inkscape:export-ydpi="90"
         inkscape:export-xdpi="90"
         inkscape:export-filename="splitter.png"
         y="729.36218"
         x="406"
         height="1"
         width="1"
         id="rect4446"
         style="fill:#535358;fill-opacity:1;stroke:none" />
      <rect
         inkscape:export-ydpi="90"
         inkscape:export-xdpi="90"
         inkscape:export-filename="splitter.png"
         style="fill:#535358;fill-opacity:1;stroke:none"
         id="rect4448"
         width="1"
         height="1"
         x="404"
         y="727.36218" />
      <rect
         inkscape:export-ydpi="90"
         inkscape:export-xdpi="90"
         inkscape:export-filename="splitter.png"
         style="fill:#535358;fill-opacity:1;stroke:none"
         id="rect4464"
         width="1"
         height="1"
         x="402"
         y="729.36218" />
      <rect
         inkscape:export-ydpi="90"
         inkscape:export-xdpi="90"
         inkscape:export-filename="splitter.png"
         y="727.36218"
         x="400"
         height="1"
         width="1"
         id="rect4468"
         style="fill:#535358;fill-opacity:1;stroke:none" />
      <rect
         inkscape:export-ydpi="90"
         inkscape:export-xdpi="90"
         inkscape:export-filename="splitter.png"
         style="fill:#535358;fill-opacity:1;stroke:none"
         id="rect4470"
         width="1"
         height="1"
         x="398"
         y="729.36218" />
      <rect
         inkscape:export-ydpi="90"
         inkscape:export-xdpi="90"
         inkscape:export-filename="splitter.png"
         y="727.36218"
         x="396"
         height="1"
         width="1"
         id="rect4490"
         style="fill:#535358;fill-opacity:1;stroke:none" />
      <rect
         inkscape:export-ydpi="90"
         inkscape:export-xdpi="90"
         inkscape:export-filename="splitter.png"
         style="fill:#535358;fill-opacity:1;stroke:none"
         id="rect4492"
         width="1"
         height="1"
         x="394"
         y="729.36218" />
      <rect
         inkscape:export-ydpi="90"
         inkscape:export-xdpi="90"
         inkscape:export-filename="splitter.png"
         y="727.36218"
         x="392"
         height="1"
         width="1"
         id="rect4494"
         style="fill:#535358;fill-opacity:1;stroke:none" />
      <rect
         inkscape:export-ydpi="90"
         inkscape:export-xdpi="90"
         inkscape:export-filename="splitter.png"
         y="729.36218"
         x="390"
         height="1"
         width="1"
         id="rect4496"
         style="fill:#535358;fill-opacity:1;stroke:none" />
      <rect
         inkscape:export-ydpi="90"
         inkscape:export-xdpi="90"
         inkscape:export-filename="splitter.png"
         style="fill:#535358;fill-opacity:1;stroke:none"
         id="rect4498"
         width="1"
         height="1"
         x="388"
         y="727.36218" />
      <rect
         inkscape:export-ydpi="90"
         inkscape:export-xdpi="90"
         inkscape:export-filename="splitter.png"
         y="729.36218"
         x="386"
         height="1"
         width="1"
         id="rect4500"
         style="fill:#535358;fill-opacity:1;stroke:none" />
      <rect
         inkscape:export-ydpi="90"
         inkscape:export-xdpi="90"
         inkscape:export-filename="splitter.png"
         style="fill:#535358;fill-opacity:1;stroke:none"
         id="rect4516"
         width="1"
         height="1"
         x="382"
         y="729.36218" />
      <rect
         inkscape:export-ydpi="90"
         inkscape:export-xdpi="90"
         inkscape:export-filename="splitter.png"
         y="727.36218"
         x="380"
         height="1"
         width="1"
         id="rect4518"
         style="fill:#535358;fill-opacity:1;stroke:none" />
      <rect
         inkscape:export-ydpi="90"
         inkscape:export-xdpi="90"
         inkscape:export-filename="splitter.png"
         style="fill:#535358;fill-opacity:1;stroke:none"
         id="rect4526"
         width="1"
         height="1"
         x="384"
         y="727.36218" />
      <rect
         inkscape:export-ydpi="90"
         inkscape:export-xdpi="90"
         inkscape:export-filename="splitter.png"
         y="729.36218"
         x="410"
         height="1"
         width="1"
         id="rect4528"
         style="fill:#535358;fill-opacity:1;stroke:none" />
    </g>
    <g
       id="g30864"
       transform="translate(-11.75,-93.500003)"
       inkscape:export-filename="grid.png"
       inkscape:export-xdpi="90"
       inkscape:export-ydpi="90">
      <rect
         style="fill:#444444;fill-opacity:1;stroke:none"
         id="rect19262"
         width="1"
         height="1"
         x="209.75"
         y="754.86218" />
      <rect
         style="fill:#444444;fill-opacity:1;stroke:none"
         id="rect19264"
         width="1"
         height="1"
         x="211.75"
         y="754.86218" />
      <rect
         style="fill:#444444;fill-opacity:1;stroke:none"
         id="rect19266"
         width="1"
         height="1"
         x="211.75"
         y="756.86218" />
      <rect
         style="fill:#444444;fill-opacity:1;stroke:none"
         id="rect19268"
         width="1"
         height="1"
         x="209.75"
         y="756.86218" />
      <rect
         y="754.86218"
         x="213.75"
         height="1"
         width="1"
         id="rect19270"
         style="fill:#444444;fill-opacity:1;stroke:none" />
      <rect
         y="756.86218"
         x="213.75"
         height="1"
         width="1"
         id="rect19276"
         style="fill:#444444;fill-opacity:1;stroke:none" />
      <rect
         y="758.86218"
         x="209.75"
         height="1"
         width="1"
         id="rect19278"
         style="fill:#444444;fill-opacity:1;stroke:none" />
      <rect
         y="758.86218"
         x="211.75"
         height="1"
         width="1"
         id="rect19280"
         style="fill:#444444;fill-opacity:1;stroke:none" />
      <rect
         y="760.86218"
         x="211.75"
         height="1"
         width="1"
         id="rect19282"
         style="fill:#444444;fill-opacity:1;stroke:none" />
      <rect
         y="760.86218"
         x="209.75"
         height="1"
         width="1"
         id="rect19284"
         style="fill:#444444;fill-opacity:1;stroke:none" />
      <rect
         style="fill:#444444;fill-opacity:1;stroke:none"
         id="rect19286"
         width="1"
         height="1"
         x="213.75"
         y="758.86218" />
      <rect
         style="fill:#444444;fill-opacity:1;stroke:none"
         id="rect19292"
         width="1"
         height="1"
         x="213.75"
         y="760.86218" />
      <rect
         style="fill:#444444;fill-opacity:1;stroke:none"
         id="rect19302"
         width="1"
         height="1"
         x="205.75"
         y="754.86218" />
      <rect
         style="fill:#444444;fill-opacity:1;stroke:none"
         id="rect19304"
         width="1"
         height="1"
         x="207.75"
         y="754.86218" />
      <rect
         style="fill:#444444;fill-opacity:1;stroke:none"
         id="rect19306"
         width="1"
         height="1"
         x="207.75"
         y="756.86218" />
      <rect
         style="fill:#444444;fill-opacity:1;stroke:none"
         id="rect19308"
         width="1"
         height="1"
         x="205.75"
         y="756.86218" />
      <rect
         y="758.86218"
         x="205.75"
         height="1"
         width="1"
         id="rect19318"
         style="fill:#444444;fill-opacity:1;stroke:none" />
      <rect
         y="758.86218"
         x="207.75"
         height="1"
         width="1"
         id="rect19320"
         style="fill:#444444;fill-opacity:1;stroke:none" />
      <rect
         y="760.86218"
         x="207.75"
         height="1"
         width="1"
         id="rect19322"
         style="fill:#444444;fill-opacity:1;stroke:none" />
      <rect
         y="760.86218"
         x="205.75"
         height="1"
         width="1"
         id="rect19324"
         style="fill:#444444;fill-opacity:1;stroke:none" />
      <rect
         y="762.86218"
         x="205.75"
         height="1"
         width="1"
         id="rect19334"
         style="fill:#444444;fill-opacity:1;stroke:none" />
      <rect
         y="762.86218"
         x="207.75"
         height="1"
         width="1"
         id="rect19336"
         style="fill:#444444;fill-opacity:1;stroke:none" />
      <rect
         y="763.86218"
         x="214.75"
         height="1"
         width="1"
         id="rect19340"
         style="fill:#444444;fill-opacity:1;stroke:none;opacity:0" />
      <rect
         y="762.86218"
         x="209.75"
         height="1"
         width="1"
         id="rect19358"
         style="fill:#444444;fill-opacity:1;stroke:none" />
      <rect
         y="762.86218"
         x="211.75"
         height="1"
         width="1"
         id="rect19360"
         style="fill:#444444;fill-opacity:1;stroke:none" />
      <rect
         style="fill:#444444;fill-opacity:1;stroke:none"
         id="rect19366"
         width="1"
         height="1"
         x="213.75"
         y="762.86218" />
    </g>
    <g
       id="g4082"
       inkscape:export-filename="minimize.png"
       inkscape:export-xdpi="90"
       inkscape:export-ydpi="90"
       transform="translate(0,-40)"
       style="stroke:#000000;stroke-opacity:1">
      <path
         inkscape:export-ydpi="90"
         inkscape:export-xdpi="90"
         inkscape:export-filename="button_minimize.png"
         inkscape:connector-curvature="0"
         id="path4423"
         d="m 599,603.36218 11,0"
         style="fill:none;stroke:#000000;stroke-width:1.99683571000000004;stroke-linecap:butt;stroke-linejoin:miter;stroke-miterlimit:4;stroke-opacity:1;stroke-dasharray:none"
         sodipodi:nodetypes="cc" />
      <path
         sodipodi:nodetypes="cc"
         style="opacity:0;fill:none;stroke:#000000;stroke-width:1.99683571000000004;stroke-linecap:butt;stroke-linejoin:miter;stroke-miterlimit:4;stroke-opacity:1;stroke-dasharray:none"
         d="m 599,595.36218 11,0"
         id="path4080"
         inkscape:connector-curvature="0"
         inkscape:export-filename="button_minimize.png"
         inkscape:export-xdpi="90"
         inkscape:export-ydpi="90" />
    </g>
    <path
       style="fill:#000000;fill-opacity:1"
       d="m 422,553.36218 0,2 -10,0 c -2.00001,0 -4.02409,2.00015 -4,4 l 0,5 3,-3 0,-1 c -4e-5,-1 0,-2 1,-2 l 10,0 0,2 4,-3.5 z m 4,7 -3,3 0,1 c 4e-5,1 -1,2 -2,2 l -9,0 0,-2 -4,3.5 4,3.5 0,-2 10,0 c 2.00001,0 4,-2 4,-4 z"
       id="path3128"
       inkscape:connector-curvature="0"
       sodipodi:nodetypes="ccsscccscccccccscccccssc"
       inkscape:export-filename="repeat.png"
       inkscape:export-xdpi="90"
       inkscape:export-ydpi="90" />
    <path
       style="fill:#000000;fill-opacity:1"
       d="m 387,553.36218 0,2 -2,0 c -4.30373,0 -5.7722,10 -9,10 l -3,0 0,3 4,0 c 4.30371,0 5.7722,-10 9,-10 l 1,0 0,2 4,-3.4375 z m -14,3 0,3 3,0 c 0.80695,0 1.49743,0.625 2.15625,1.5625 l 1.65625,-2.96875 c -0.80009,-0.95577 -1.72402,-1.59375 -2.8125,-1.59375 z m 10.21875,7.46875 -1.65625,3.0625 c 0.95524,1.41874 2.04344,2.46875 3.4375,2.46875 l 2,0 0,2 4,-3.5625 -4,-3.4375 0,2 -1,0 c -1.06134,0 -1.937,-1.0799 -2.78125,-2.53125 z"
       id="path3919"
       inkscape:connector-curvature="0"
       sodipodi:nodetypes="ccssccssccccccsccscccscccccsc"
       inkscape:export-filename="shuffle.png"
       inkscape:export-xdpi="90"
       inkscape:export-ydpi="90" />
    <g
       id="g3871"
       transform="translate(0.02774048,-2.0000026)"
       inkscape:export-filename="theme.png"
       inkscape:export-xdpi="90"
       inkscape:export-ydpi="90">
      <path
         sodipodi:open="true"
         sodipodi:end="10.515519"
         sodipodi:start="5.1880859"
         transform="matrix(0.70762944,0,0,0.70762944,139.61371,482.93006)"
         d="m 480.65266,104.72989 a 8.485281,8.485281 0 1 1 -7.80465,0.017"
         sodipodi:ry="8.485281"
         sodipodi:rx="8.485281"
         sodipodi:cy="112.27309"
         sodipodi:cx="476.76675"
         id="path3101"
         style="fill:none;stroke:#000000;stroke-width:2.76448417;stroke-linejoin:round;stroke-miterlimit:4;stroke-opacity:1;stroke-dasharray:none;stroke-dashoffset:0"
         sodipodi:type="arc" />
      <rect
         y="554.36218"
         x="475.97226"
         height="9"
         width="2.09375"
         id="rect3875"
         style="fill:#000000;fill-opacity:1;stroke:none" />
      <rect
         y="570.42468"
         x="469.9375"
         height="0.9375"
         width="14.0625"
         id="rect3091"
         style="opacity:0;fill:#000000;fill-opacity:1;stroke:none" />
    </g>
  </g>
</svg>
