<?xml version="1.0" encoding="UTF-8" standalone="no"?>
<!-- Created with Inkscape (http://www.inkscape.org/) -->

<svg
   width="800"
   height="600"
   id="svg2"
   version="1.1"
   xmlns:xlink="http://www.w3.org/1999/xlink"
   xmlns="http://www.w3.org/2000/svg"
   xmlns:svg="http://www.w3.org/2000/svg"
   xmlns:rdf="http://www.w3.org/1999/02/22-rdf-syntax-ns#"
   xmlns:cc="http://creativecommons.org/ns#"
   xmlns:dc="http://purl.org/dc/elements/1.1/">
  <defs
     id="defs4">
    <linearGradient
       id="linearGradient3987">
      <stop
         style="stop-color:#a0a0a0;stop-opacity:1;"
         offset="0"
         id="stop3989" />
      <stop
         id="stop3991"
         offset="1"
         style="stop-color:#a8a8a8;stop-opacity:1;" />
    </linearGradient>
    <linearGradient
       id="linearGradient3947">
      <stop
         style="stop-color:#bababa;stop-opacity:1;"
         offset="0"
         id="stop3949" />
      <stop
         id="stop3951"
         offset="1"
         style="stop-color:#ffffff;stop-opacity:1;" />
    </linearGradient>
    <linearGradient
       id="linearGradient3941">
      <stop
         id="stop3943"
         offset="0"
         style="stop-color:#8f8f8f;stop-opacity:1;" />
      <stop
         style="stop-color:#acacac;stop-opacity:1;"
         offset="1"
         id="stop3945" />
    </linearGradient>
    <linearGradient
       id="linearGradient4327">
      <stop
         style="stop-color:#bababa;stop-opacity:1;"
         offset="0"
         id="stop4329" />
      <stop
         id="stop4331"
         offset="1"
         style="stop-color:#ffffff;stop-opacity:1;" />
    </linearGradient>
    <linearGradient
       id="linearGradient4108">
      <stop
         style="stop-color:#767676;stop-opacity:1;"
         offset="0"
         id="stop4110" />
      <stop
         style="stop-color:#c1c1c1;stop-opacity:1;"
         offset="1"
         id="stop4112" />
    </linearGradient>
    <linearGradient
       id="linearGradient3976">
      <stop
         style="stop-color:#fbffdc;stop-opacity:1;"
         offset="0"
         id="stop3978" />
      <stop
         id="stop3980"
         offset="1"
         style="stop-color:#ffffff;stop-opacity:1;" />
    </linearGradient>
    <linearGradient
       id="linearGradient3928">
      <stop
         style="stop-color:#9f9f9f;stop-opacity:1;"
         offset="0"
         id="stop3930" />
      <stop
         id="stop3932"
         offset="1"
         style="stop-color:#656565;stop-opacity:1;" />
    </linearGradient>
    <linearGradient
       id="linearGradient3823">
      <stop
         style="stop-color:#a0a0a0;stop-opacity:1;"
         offset="0"
         id="stop3825" />
      <stop
         id="stop4319"
         offset="0.36010069"
         style="stop-color:#c8c8c8;stop-opacity:1;" />
      <stop
         style="stop-color:#c8c8c8;stop-opacity:1;"
         offset="0.36010069"
         id="stop4321" />
      <stop
         id="stop4323"
         offset="0.84023482"
         style="stop-color:#c8c8c8;stop-opacity:1;" />
      <stop
         style="stop-color:#c8c8c8;stop-opacity:1;"
         offset="0.84023482"
         id="stop4325" />
      <stop
         style="stop-color:#f0f0f0;stop-opacity:1;"
         offset="1"
         id="stop3827" />
    </linearGradient>
    <linearGradient
       id="linearGradient3790">
      <stop
         style="stop-color:#000000;stop-opacity:1;"
         offset="0"
         id="stop3792" />
      <stop
         style="stop-color:#5f5f5f;stop-opacity:1;"
         offset="1"
         id="stop3794" />
    </linearGradient>
    <linearGradient
       id="linearGradient3772">
      <stop
         id="stop3780"
         offset="0"
         style="stop-color:#9b9b9b;stop-opacity:1;" />
      <stop
         style="stop-color:#fcfcfc;stop-opacity:1"
         offset="1"
         id="stop3776" />
    </linearGradient>
    <linearGradient
       xlink:href="#linearGradient3823"
       id="linearGradient3829"
       x1="-162.72632"
       y1="266.88885"
       x2="-162.72632"
       y2="119.32961"
       gradientUnits="userSpaceOnUse"
       gradientTransform="matrix(0.86837294,0,0,0.8468807,321.30713,33.97699)" />
    <linearGradient
       xlink:href="#linearGradient4108"
       id="linearGradient4114"
       x1="300"
       y1="292.36218"
       x2="300"
       y2="167.36218"
       gradientUnits="userSpaceOnUse"
       gradientTransform="matrix(1,0,0,1.0004347,60,-32.43451)" />
    <linearGradient
       xlink:href="#linearGradient3790"
       id="linearGradient4243"
       gradientUnits="userSpaceOnUse"
       gradientTransform="translate(-35,-33.362169)"
       x1="230"
       y1="268.36218"
       x2="230"
       y2="280.36218" />
    <linearGradient
       xlink:href="#linearGradient3790"
       id="linearGradient4253"
       gradientUnits="userSpaceOnUse"
       gradientTransform="matrix(0.83333334,0,0,0.83333334,54.166666,45.393698)"
       x1="329.79999"
       y1="265.16217"
       x2="329.79999"
       y2="279.56216" />
    <linearGradient
       xlink:href="#linearGradient3790"
       id="linearGradient4441"
       gradientUnits="userSpaceOnUse"
       x1="543"
       y1="179.36218"
       x2="543"
       y2="181.36218" />
    <linearGradient
       xlink:href="#linearGradient3976"
       id="linearGradient4468"
       gradientUnits="userSpaceOnUse"
       gradientTransform="translate(-8)"
       x1="235"
       y1="286.36218"
       x2="235"
       y2="261.36218" />
    <linearGradient
       xlink:href="#linearGradient3772"
       id="linearGradient4470"
       gradientUnits="userSpaceOnUse"
       gradientTransform="translate(-100)"
       x1="235"
       y1="286.36218"
       x2="235"
       y2="261.36218" />
    <linearGradient
       xlink:href="#linearGradient3928"
       id="linearGradient4484"
       gradientUnits="userSpaceOnUse"
       gradientTransform="translate(-54)"
       x1="235"
       y1="286.36218"
       x2="235"
       y2="261.36218" />
    <linearGradient
       xlink:href="#linearGradient4327"
       id="linearGradient4578"
       gradientUnits="userSpaceOnUse"
       x1="563"
       y1="187.36218"
       x2="563"
       y2="173.36218" />
    <linearGradient
       xlink:href="#linearGradient3928"
       id="linearGradient4580"
       gradientUnits="userSpaceOnUse"
       x1="563"
       y1="187.36218"
       x2="563"
       y2="173.36218" />
    <linearGradient
       xlink:href="#linearGradient3976"
       id="linearGradient4582"
       gradientUnits="userSpaceOnUse"
       x1="563"
       y1="187.36218"
       x2="563"
       y2="173.36218" />
    <linearGradient
       xlink:href="#linearGradient3790"
       id="linearGradient4584"
       gradientUnits="userSpaceOnUse"
       x1="563"
       y1="176.36218"
       x2="563"
       y2="184.36218"
       gradientTransform="matrix(1.0017209,0,0,0.998304,-0.96492371,0.30200849)" />
    <linearGradient
       xlink:href="#linearGradient3790"
       id="linearGradient4586"
       gradientUnits="userSpaceOnUse"
       x1="563"
       y1="176.36218"
       x2="563"
       y2="184.36218"
       gradientTransform="matrix(1.0017209,0,0,0.998304,-0.96492371,0.30200849)" />
    <linearGradient
       xlink:href="#linearGradient3790"
       id="linearGradient4588"
       gradientUnits="userSpaceOnUse"
       x1="563"
       y1="176.36218"
       x2="563"
       y2="184.36218" />
    <linearGradient
       xlink:href="#linearGradient3947"
       id="linearGradient3135"
       gradientUnits="userSpaceOnUse"
       gradientTransform="translate(-100)"
       x1="223"
       y1="269.36218"
       x2="223"
       y2="261.36218" />
    <linearGradient
       xlink:href="#linearGradient3941"
       id="linearGradient3958"
       gradientUnits="userSpaceOnUse"
       gradientTransform="translate(346,500)"
       x1="235"
       y1="269.36218"
       x2="235"
       y2="261.36218" />
    <filter
       id="filter3948"
       x="-0.057820818"
       y="-0.096673645"
       width="1.1156416"
       height="1.1933473">
      <feGaussianBlur
         stdDeviation="11.443704"
         id="feGaussianBlur3950" />
    </filter>
    <linearGradient
       xlink:href="#linearGradient3987"
       id="linearGradient4111"
       x1="355"
       y1="792.36218"
       x2="355"
       y2="782.36218"
       gradientUnits="userSpaceOnUse" />
    <linearGradient
       xlink:href="#linearGradient3976"
       id="linearGradient4168"
       gradientUnits="userSpaceOnUse"
       x1="355"
       y1="792.36218"
       x2="355"
       y2="782.36218" />
    <linearGradient
       xlink:href="#linearGradient3928"
       id="linearGradient4194"
       gradientUnits="userSpaceOnUse"
       x1="355"
       y1="792.36218"
       x2="355"
       y2="782.36218" />
    <linearGradient
       xlink:href="#linearGradient3928"
       id="linearGradient4198"
       gradientUnits="userSpaceOnUse"
       x1="355"
       y1="792.36218"
       x2="355"
       y2="782.36218" />
    <linearGradient
       xlink:href="#linearGradient3790"
       id="linearGradient4014"
       gradientUnits="userSpaceOnUse"
       gradientTransform="matrix(0.16666667,0,0,0.83333334,236.83333,466.3937)"
       x1="331"
       y1="265.16217"
       x2="331"
       y2="279.56216" />
    <linearGradient
       xlink:href="#linearGradient3790"
       id="linearGradient4018"
       gradientUnits="userSpaceOnUse"
       gradientTransform="translate(57,419.00001)"
       x1="230"
       y1="268.36218"
       x2="230"
       y2="280.36218" />
    <linearGradient
       xlink:href="#linearGradient3790"
       id="linearGradient4075"
       gradientUnits="userSpaceOnUse"
       gradientTransform="translate(57,419.00001)"
       x1="230"
       y1="268.36218"
       x2="230"
       y2="280.36218" />
    <linearGradient
       xlink:href="#linearGradient3790"
       id="linearGradient4077"
       gradientUnits="userSpaceOnUse"
       gradientTransform="matrix(0.16666667,0,0,0.83333334,236.83333,466.3937)"
       x1="331"
       y1="265.16217"
       x2="331"
       y2="279.56216" />
    <linearGradient
       xlink:href="#linearGradient3790"
       id="linearGradient4079"
       gradientUnits="userSpaceOnUse"
       gradientTransform="matrix(0.22222223,0,0,0.83333334,-423.88889,465.3937)"
       x1="328"
       y1="266.36218"
       x2="328"
       y2="280.76218" />
    <linearGradient
       xlink:href="#linearGradient3790"
       id="linearGradient4081"
       gradientUnits="userSpaceOnUse"
       gradientTransform="matrix(0.22222223,0,0,0.83333334,-430.88889,465.3937)"
       x1="328"
       y1="266.36218"
       x2="328"
       y2="280.76218" />
    <filter
       id="filter4026"
       x="-0.018159292"
       width="1.0363186"
       y="-2.052001"
       height="5.104002">
      <feGaussianBlur
         stdDeviation="4.275"
         id="feGaussianBlur4028" />
    </filter>
    <linearGradient
       y2="1036.8219"
       x2="6.7525244"
       y1="1052.2892"
       x1="6.7524238"
       gradientTransform="matrix(0.97355485,0,0,0.92112147,0.249294,82.115718)"
       gradientUnits="userSpaceOnUse"
       id="linearGradient4661"
       xlink:href="#linearGradient4081-1" />
    <linearGradient
       y2="1036.8219"
       x2="6.7525244"
       y1="1052.2892"
       x1="6.7524238"
       gradientTransform="matrix(0.97355485,0,0,0.92112147,0.249294,82.115718)"
       gradientUnits="userSpaceOnUse"
       id="linearGradient4659"
       xlink:href="#linearGradient4081-1" />
    <linearGradient
       y2="1036.8219"
       x2="6.7525244"
       y1="1052.2892"
       x1="6.7524238"
       gradientTransform="matrix(0.97355485,0,0,0.92112147,0.249294,82.115718)"
       gradientUnits="userSpaceOnUse"
       id="linearGradient4657"
       xlink:href="#linearGradient4081-1" />
    <linearGradient
       y2="1036.8219"
       x2="6.7525244"
       y1="1052.2892"
       x1="6.7524238"
       gradientTransform="matrix(0.97355485,0,0,0.92112147,0.249294,82.115718)"
       gradientUnits="userSpaceOnUse"
       id="linearGradient4655"
       xlink:href="#linearGradient4081-1" />
    <linearGradient
       y2="1036.8219"
       x2="6.7525244"
       y1="1052.2892"
       x1="6.7524238"
       gradientTransform="matrix(0.97355485,0,0,0.92112147,0.249294,82.115718)"
       gradientUnits="userSpaceOnUse"
       id="linearGradient4653"
       xlink:href="#linearGradient4081-1" />
    <linearGradient
       y2="1036.8219"
       x2="6.7525244"
       y1="1052.2892"
       x1="6.7524238"
       gradientTransform="matrix(0.97355485,0,0,0.92112147,0.249294,82.115718)"
       gradientUnits="userSpaceOnUse"
       id="linearGradient4651"
       xlink:href="#linearGradient4081-1" />
    <linearGradient
       y2="1036.8219"
       x2="6.7525244"
       y1="1052.2892"
       x1="6.7524238"
       gradientTransform="matrix(0.97355485,0,0,0.92112147,0.249294,82.115718)"
       gradientUnits="userSpaceOnUse"
       id="linearGradient4649"
       xlink:href="#linearGradient4081-1" />
    <linearGradient
       y2="1036.8219"
       x2="6.7525244"
       y1="1052.2892"
       x1="6.7524238"
       gradientTransform="matrix(0.97355485,0,0,0.92112147,0.249294,82.115718)"
       gradientUnits="userSpaceOnUse"
       id="linearGradient4647"
       xlink:href="#linearGradient4081-1" />
    <linearGradient
       id="linearGradient4081-1">
      <stop
         id="stop4083"
         style="stop-color:#161616;stop-opacity:1;"
         offset="0" />
      <stop
         id="stop4085"
         style="stop-color:#373737;stop-opacity:1;"
         offset="1" />
    </linearGradient>
    <linearGradient
       xlink:href="#linearGradient3790"
       id="linearGradient4266"
       gradientUnits="userSpaceOnUse"
       x1="370"
       y1="702.36218"
       x2="370"
       y2="712.36218" />
    <linearGradient
       xlink:href="#linearGradient3790"
       id="linearGradient4268"
       gradientUnits="userSpaceOnUse"
       x1="370"
       y1="702.36218"
       x2="370"
       y2="712.36218" />
    <linearGradient
       xlink:href="#linearGradient3790"
       id="linearGradient4270"
       gradientUnits="userSpaceOnUse"
       x1="370"
       y1="702.36218"
       x2="370"
       y2="712.36218" />
    <linearGradient
       xlink:href="#linearGradient3790"
       id="linearGradient4272"
       gradientUnits="userSpaceOnUse"
       x1="370"
       y1="702.36218"
       x2="370"
       y2="712.36218" />
    <linearGradient
       xlink:href="#linearGradient3976"
       id="linearGradient4274"
       gradientUnits="userSpaceOnUse"
       x1="355"
       y1="792.36218"
       x2="355"
       y2="782.36218" />
    <linearGradient
       xlink:href="#linearGradient3987"
       id="linearGradient4276"
       gradientUnits="userSpaceOnUse"
       x1="355"
       y1="792.36218"
       x2="355"
       y2="782.36218" />
    <linearGradient
       xlink:href="#linearGradient3790"
       id="linearGradient3994"
       gradientUnits="userSpaceOnUse"
       gradientTransform="matrix(0.22222223,0,0,0.83333334,-416.88889,465.3937)"
       x1="328"
       y1="266.36218"
       x2="328"
       y2="280.76218" />
    <linearGradient
       xlink:href="#linearGradient3790"
       id="linearGradient3998"
       gradientUnits="userSpaceOnUse"
       gradientTransform="matrix(0.22222223,0,0,0.83333334,-409.88889,465.3937)"
       x1="328"
       y1="266.36218"
       x2="328"
       y2="280.76218" />
    <linearGradient
       xlink:href="#linearGradient3790"
       id="linearGradient4007"
       x1="360"
       y1="235"
       x2="360"
       y2="245"
       gradientUnits="userSpaceOnUse"
       gradientTransform="translate(0,453.36218)" />
    <linearGradient
       xlink:href="#linearGradient3790"
       id="linearGradient4009"
       x1="385"
       y1="235"
       x2="385"
       y2="245"
       gradientUnits="userSpaceOnUse"
       gradientTransform="translate(0,453.36218)" />
    <linearGradient
       xlink:href="#linearGradient3790"
       id="linearGradient41198"
       x1="623"
       y1="152"
       x2="623"
       y2="144"
       gradientUnits="userSpaceOnUse" />
    <linearGradient
       xlink:href="#linearGradient3790"
       id="linearGradient43380"
       gradientUnits="userSpaceOnUse"
       x1="623"
       y1="152"
       x2="623"
       y2="144"
       gradientTransform="matrix(-1,0,0,1,1246,0)" />
  </defs>
  <metadata
     id="metadata7">
    <rdf:RDF>
      <cc:Work
         rdf:about="">
        <dc:format>image/svg+xml</dc:format>
        <dc:type
           rdf:resource="http://purl.org/dc/dcmitype/StillImage" />
      </cc:Work>
    </rdf:RDF>
  </metadata>
  <g
     id="g4020"
     transform="translate(0,-453.36218)">
    <rect
       style="fill:#ffffff;fill-opacity:1;fill-rule:nonzero;stroke:none"
       id="rect3908"
       width="477"
       height="160"
       x="164"
       y="713.36218"
       rx="0"
       ry="0" />
    <rect
       ry="0"
       rx="0"
       y="714.36218"
       x="165"
       height="158"
       width="475"
       id="rect3906"
       style="fill:#ffffff;fill-opacity:1;fill-rule:nonzero;stroke:none" />
  </g>
  <rect
     style="fill:#000000;fill-opacity:1;fill-rule:nonzero;stroke:none;filter:url(#filter4026)"
     id="rect3153"
     width="565"
     height="4.9999976"
     x="75"
     y="708.36218"
     transform="matrix(0.84783533,0,0,1,98.946599,-452.36218)" />
  <rect
     y="134"
     x="164"
     height="127"
     width="477"
     id="rect4098"
     style="fill:url(#linearGradient4114);fill-opacity:1;fill-rule:nonzero;stroke:none" />
  <rect
     style="fill:url(#linearGradient3829);fill-opacity:1;fill-rule:nonzero;stroke:none"
     id="rect3810"
     width="475"
     height="124.9375"
     x="165"
     y="135.0625"
     rx="0"
     ry="0" />
  <g
     id="g4453"
     transform="translate(61,-33.36218)">
    <rect
       ry="3"
       rx="3"
       y="262.36218"
       x="114"
       height="26"
       width="39"
       id="rect3786"
       style="fill:#dedede;fill-opacity:1;fill-rule:nonzero;stroke:none" />
    <rect
       style="fill:#4a4a4a;fill-opacity:1;fill-rule:nonzero;stroke:none"
       id="rect3782"
       width="39"
       height="27"
       x="114"
       y="260.36218"
       rx="3"
       ry="3" />
    <rect
       ry="1.9999974"
       rx="1.9999974"
       y="261.36218"
       x="115"
       height="25"
       width="37"
       id="rect3000"
       style="fill:url(#linearGradient4470);fill-opacity:1;fill-rule:nonzero;stroke:none" />
  </g>
  <rect
     style="fill:#3f4f61;fill-opacity:1;fill-rule:nonzero;stroke:none"
     id="rect3918"
     width="455"
     height="60.104076"
     x="175"
     y="159.89594"
     rx="5.1040626"
     ry="5.1040626" />
  <g
     id="g4479"
     transform="translate(61,-33.36218)">
    <rect
       style="fill:#dedede;fill-opacity:1;fill-rule:nonzero;stroke:none"
       id="rect3926"
       width="39"
       height="26"
       x="160"
       y="262.36218"
       rx="3"
       ry="3" />
    <rect
       ry="3"
       rx="3"
       y="260.36218"
       x="160"
       height="27"
       width="39"
       id="rect3924"
       style="fill:#4a4a4a;fill-opacity:1;fill-rule:nonzero;stroke:none" />
    <rect
       style="fill:url(#linearGradient4484);fill-opacity:1;fill-rule:nonzero;stroke:none"
       id="rect3920"
       width="37"
       height="25"
       x="161"
       y="261.36218"
       rx="1.9999974"
       ry="1.9999974" />
  </g>
  <g
     id="g4463"
     transform="translate(61,-33.36218)">
    <rect
       style="fill:#dedede;fill-opacity:1;fill-rule:nonzero;stroke:none"
       id="rect3958"
       width="39"
       height="26"
       x="206"
       y="262.36218"
       rx="3"
       ry="3" />
    <rect
       ry="3"
       rx="3"
       y="260.36218"
       x="206"
       height="27"
       width="39"
       id="rect3960"
       style="fill:#4a4a4a;fill-opacity:1;fill-rule:nonzero;stroke:none" />
    <rect
       style="fill:url(#linearGradient4468);fill-opacity:1;fill-rule:nonzero;stroke:none"
       id="rect3962"
       width="37"
       height="25"
       x="207"
       y="261.36218"
       rx="1.9999974"
       ry="1.9999974" />
  </g>
  <g
     id="stop"
     transform="translate(-89,-31.36218)">
    <rect
       style="fill:#d8d8d8;fill-opacity:1;fill-rule:nonzero;stroke:none"
       id="rect4016"
       width="11"
       height="10.999997"
       x="325"
       y="268.36218"
       rx="0"
       ry="0" />
    <rect
       ry="0"
       rx="0"
       y="266.36218"
       x="325"
       height="11.999997"
       width="11"
       id="rect4006"
       style="fill:url(#linearGradient4253);fill-opacity:1;fill-rule:nonzero;stroke:none" />
  </g>
  <g
     id="next"
     transform="translate(0,-452.36218)">
    <path
       style="fill:#d8d8d8;fill-opacity:1;stroke:none"
       d="m 281,688.36218 v 12 l 12,-6 z"
       id="path4133" />
    <path
       id="path4129"
       d="m 281,687.36218 v 12 l 12,-6 z"
       style="fill:url(#linearGradient4018);fill-opacity:1;stroke:none" />
    <rect
       ry="0"
       rx="0"
       y="689.36218"
       x="290"
       height="10.999997"
       width="3"
       id="rect4149"
       style="fill:#d8d8d8;fill-opacity:1;fill-rule:nonzero;stroke:none" />
    <rect
       style="fill:url(#linearGradient4014);fill-opacity:1;fill-rule:nonzero;stroke:none"
       id="rect4145"
       width="3"
       height="11.999997"
       x="290"
       y="687.36218"
       rx="0"
       ry="0" />
  </g>
  <g
     id="g4207"
     transform="translate(-114,-31.36218)" />
  <g
     id="g4563"
     transform="translate(60,-32.36218)">
    <path
       transform="translate(0.016551,1.00048)"
       d="m 570.98345,179.84784 c 0.28406,4.40914 -3.05997,8.21373 -7.46911,8.49779 -4.40913,0.28407 -8.21372,-3.05997 -8.49779,-7.4691 -0.28406,-4.40914 3.05997,-8.21373 7.46911,-8.4978 4.40772,-0.28397 8.21159,3.0579 8.49756,7.4655"
       id="path4358"
       style="fill:#ffffff;fill-opacity:1;fill-rule:nonzero;stroke:none" />
    <path
       style="fill:#313131;fill-opacity:1;fill-rule:nonzero;stroke:none"
       id="path4354"
       d="m 570.98345,179.84784 c 0.28406,4.40914 -3.05997,8.21373 -7.46911,8.49779 -4.40913,0.28407 -8.21372,-3.05997 -8.49779,-7.4691 -0.28406,-4.40914 3.05997,-8.21373 7.46911,-8.4978 4.40772,-0.28397 8.21159,3.0579 8.49756,7.4655" />
    <path
       d="m 569.98552,179.91213 c 0.24855,3.858 -2.67747,7.18701 -6.53547,7.43557 -3.85799,0.24856 -7.18701,-2.67747 -7.43557,-6.53547 -0.24855,-3.85799 2.67747,-7.18701 6.53547,-7.43556 3.85676,-0.24848 7.18514,2.67565 7.43536,6.5323"
       id="path4344"
       style="fill:url(#linearGradient4578);fill-opacity:1;fill-rule:nonzero;stroke:none" />
  </g>
  <g
     id="g4568"
     transform="translate(60,-32.36218)">
    <path
       style="fill:#ffffff;fill-opacity:1;fill-rule:nonzero;stroke:none"
       id="path4371"
       d="m 570.98345,179.84784 c 0.28406,4.40914 -3.05997,8.21373 -7.46911,8.49779 -4.40913,0.28407 -8.21372,-3.05997 -8.49779,-7.4691 -0.28406,-4.40914 3.05997,-8.21373 7.46911,-8.4978 4.40772,-0.28397 8.21159,3.0579 8.49756,7.4655"
       transform="translate(-19.983449,1.00048)" />
    <path
       transform="translate(-20)"
       d="m 570.98345,179.84784 c 0.28406,4.40914 -3.05997,8.21373 -7.46911,8.49779 -4.40913,0.28407 -8.21372,-3.05997 -8.49779,-7.4691 -0.28406,-4.40914 3.05997,-8.21373 7.46911,-8.4978 4.40772,-0.28397 8.21159,3.0579 8.49756,7.4655"
       id="path4373"
       style="fill:#313131;fill-opacity:1;fill-rule:nonzero;stroke:none" />
    <path
       transform="translate(-20)"
       style="fill:url(#linearGradient4580);fill-opacity:1;fill-rule:nonzero;stroke:none"
       id="path4375"
       d="m 569.98552,179.91213 c 0.24855,3.858 -2.67747,7.18701 -6.53547,7.43557 -3.85799,0.24856 -7.18701,-2.67747 -7.43557,-6.53547 -0.24855,-3.85799 2.67747,-7.18701 6.53547,-7.43556 3.85676,-0.24848 7.18514,2.67565 7.43536,6.5323" />
  </g>
  <g
     id="g4573"
     transform="translate(60,-32.36218)">
    <path
       transform="translate(-39.983449,1.00048)"
       d="m 570.98345,179.84784 c 0.28406,4.40914 -3.05997,8.21373 -7.46911,8.49779 -4.40913,0.28407 -8.21372,-3.05997 -8.49779,-7.4691 -0.28406,-4.40914 3.05997,-8.21373 7.46911,-8.4978 4.40772,-0.28397 8.21159,3.0579 8.49756,7.4655"
       id="path4379"
       style="fill:#ffffff;fill-opacity:1;fill-rule:nonzero;stroke:none" />
    <path
       style="fill:#313131;fill-opacity:1;fill-rule:nonzero;stroke:none"
       id="path4381"
       d="m 570.98345,179.84784 c 0.28406,4.40914 -3.05997,8.21373 -7.46911,8.49779 -4.40913,0.28407 -8.21372,-3.05997 -8.49779,-7.4691 -0.28406,-4.40914 3.05997,-8.21373 7.46911,-8.4978 4.40772,-0.28397 8.21159,3.0579 8.49756,7.4655"
       transform="translate(-40)" />
    <path
       d="m 569.98552,179.91213 c 0.24855,3.858 -2.67747,7.18701 -6.53547,7.43557 -3.85799,0.24856 -7.18701,-2.67747 -7.43557,-6.53547 -0.24855,-3.85799 2.67747,-7.18701 6.53547,-7.43556 3.85676,-0.24848 7.18514,2.67565 7.43536,6.5323"
       id="path4383"
       style="fill:url(#linearGradient4582);fill-opacity:1;fill-rule:nonzero;stroke:none"
       transform="translate(-40)" />
  </g>
  <g
     id="g3953"
     transform="translate(12,-528.36218)">
    <rect
       ry="3.9999974"
       rx="3.9999974"
       y="762.36218"
       x="560"
       height="8.9999971"
       width="56"
       id="rect3117"
       style="fill:#dedede;fill-opacity:1;fill-rule:nonzero;stroke:none" />
    <rect
       style="fill:#4a4a4a;fill-opacity:1;fill-rule:nonzero;stroke:none"
       id="rect3119"
       width="56"
       height="9.9999971"
       x="560"
       y="760.36218"
       rx="4.9999976"
       ry="4.9999976" />
    <rect
       ry="3.9999974"
       rx="3.9999974"
       y="761.36218"
       x="561"
       height="7.9999976"
       width="54"
       id="rect3121"
       style="fill:url(#linearGradient3958);fill-opacity:1;fill-rule:nonzero;stroke:none" />
  </g>
  <g
     transform="translate(472,-28.36218)"
     id="g3127">
    <rect
       ry="4.9999976"
       rx="4.9999976"
       y="260.36218"
       x="114"
       height="9.9999971"
       width="19"
       id="rect3131"
       style="fill:#4a4a4a;fill-opacity:1;fill-rule:nonzero;stroke:none" />
    <rect
       style="fill:url(#linearGradient3135);fill-opacity:1;fill-rule:nonzero;stroke:none"
       id="rect3133"
       width="17"
       height="7.9999976"
       x="115"
       y="261.36218"
       rx="3.9999974"
       ry="3.9999974" />
  </g>
  <g
     id="g3985"
     transform="translate(0,-452.36218)">
    <rect
       y="679.36218"
       x="216"
       height="26.999998"
       width="1"
       id="rect3981"
       style="fill:#4a4a4a;fill-opacity:1;stroke:none" />
    <rect
       style="fill:#dedede;fill-opacity:1;stroke:none"
       id="rect3983"
       width="0.99999052"
       height="1.0002211"
       x="216"
       y="706.36218" />
  </g>
  <g
     id="pause"
     transform="translate(0,-452.36218)">
    <rect
       transform="scale(-1,1)"
       ry="0"
       rx="0"
       y="689.36218"
       x="-339"
       height="10.999997"
       width="4"
       id="rect3192"
       style="fill:#d8d8d8;fill-opacity:1;fill-rule:nonzero;stroke:none" />
    <rect
       transform="scale(-1,1)"
       style="fill:url(#linearGradient3998);fill-opacity:1;fill-rule:nonzero;stroke:none"
       id="rect3194"
       width="4"
       height="11.999997"
       x="-339"
       y="687.36218"
       rx="0"
       ry="0" />
    <rect
       style="fill:#d8d8d8;fill-opacity:1;fill-rule:nonzero;stroke:none"
       id="rect4053"
       width="4"
       height="10.999997"
       x="-346"
       y="689.36218"
       rx="0"
       ry="0"
       transform="scale(-1,1)" />
    <rect
       ry="0"
       rx="0"
       y="687.36218"
       x="-346"
       height="11.999997"
       width="4"
       id="rect4055"
       style="fill:url(#linearGradient3994);fill-opacity:1;fill-rule:nonzero;stroke:none"
       transform="scale(-1,1)" />
  </g>
  <g
     id="prev"
     transform="matrix(-1,0,0,1,606,-452.36218)">
    <path
       id="path4067"
       d="m 281,688.36218 v 12 l 12,-6 z"
       style="fill:#d8d8d8;fill-opacity:1;stroke:none" />
    <path
       style="fill:url(#linearGradient4075);fill-opacity:1;stroke:none"
       d="m 281,687.36218 v 12 l 12,-6 z"
       id="path4069" />
    <rect
       style="fill:#d8d8d8;fill-opacity:1;fill-rule:nonzero;stroke:none"
       id="rect4071"
       width="3"
       height="10.999997"
       x="290"
       y="689.36218"
       rx="0"
       ry="0" />
    <rect
       ry="0"
       rx="0"
       y="687.36218"
       x="290"
       height="11.999997"
       width="3"
       id="rect4073"
       style="fill:url(#linearGradient4077);fill-opacity:1;fill-rule:nonzero;stroke:none" />
  </g>
  <rect
     ry="3.9999974"
     rx="3.9999974"
     y="627"
     x="270"
     height="7.9999976"
     width="54"
     id="rect3232"
     style="fill:#515151;fill-opacity:1;fill-rule:nonzero;stroke:none"
     transform="matrix(0,1,1,0,0,0)" />
  <text
     id="text3253"
     y="153"
     x="369"
     style="font-style:normal;font-variant:normal;font-weight:bold;font-stretch:normal;line-height:0%;font-family:Arial;-inkscape-font-specification:'Arial Bold';text-align:start;letter-spacing:0px;word-spacing:0px;writing-mode:lr-tb;text-anchor:start;fill:#eeeeec;fill-opacity:1;stroke:none"
     xml:space="preserve"><tspan
       style="font-style:normal;font-variant:normal;font-weight:bold;font-stretch:normal;font-size:16px;line-height:125%;font-family:Arial;-inkscape-font-specification:'Arial Bold';text-align:start;writing-mode:lr-tb;text-anchor:start;fill:#eeeeec;fill-opacity:1"
       y="153"
       x="369"
       id="tspan3255">Nulloy</tspan></text>
  <text
     xml:space="preserve"
     style="font-style:normal;font-variant:normal;font-weight:bold;font-stretch:normal;line-height:0%;font-family:Arial;-inkscape-font-specification:'Arial Bold';text-align:start;letter-spacing:0px;word-spacing:0px;writing-mode:lr-tb;text-anchor:start;fill:#1e1e1e;fill-opacity:1;stroke:none"
     x="369"
     y="152"
     id="text3227"><tspan
       id="tspan3229"
       x="369"
       y="152"
       style="font-style:normal;font-variant:normal;font-weight:bold;font-stretch:normal;font-size:16px;line-height:125%;font-family:Arial;-inkscape-font-specification:'Arial Bold';text-align:start;writing-mode:lr-tb;text-anchor:start;fill:#1e1e1e;fill-opacity:1">Nulloy</tspan></text>
  <g
     id="icon"
     transform="matrix(1.0666665,0,0,1.0625,-11.66664,-8.75)">
    <rect
       style="opacity:0;fill:#2c2c2c;fill-opacity:1"
       id="rect8578"
       width="15"
       height="16"
       x="175"
       y="140" />
    <g
       transform="matrix(0.99803212,0,0,1,174.56184,-896.39028)"
       id="g1953">
      <g
         style="fill:#ffffff;fill-opacity:1"
         id="g3892"
         transform="matrix(1,0,0,0.96832781,0.20472247,34.102307)">
        <path
           style="fill:#ffffff;fill-opacity:1;stroke:none"
           d="m 14.331069,1039.0629 c 0,0.8926 -0.764728,1.616 -1.708067,1.616 -0.94334,0 -1.708068,-0.7234 -1.708068,-1.616 0,-0.8925 0.764728,-1.6161 1.708068,-1.6161 0.943339,0 1.708067,0.7236 1.708067,1.6161 z"
           id="path3894" />
        <path
           style="fill:#ffffff;fill-opacity:1;stroke:none"
           d="m 10.871473,1044.4291 c -0.9622548,-7.3853 0.63755,-5.706 -10.622179,-7.6979 1.4362026,9.6018 0.41209884,8.0149 10.622179,7.6979 z"
           id="path3896" />
        <path
           id="path3898"
           d="m 10.914935,1044.9472 c -1.8426231,6.7784 -0.668205,4.0442 -7.9188255,6.193 1.6244605,-6.8168 1.8487387,-5.8739 7.9188255,-6.193 z"
           style="fill:#ffffff;fill-opacity:1;stroke:none" />
        <path
           id="path3900"
           d="m 11.077482,1044.1646 c 0.595555,-3.3471 1.762871,-2.4255 4.186398,-3.8873 -0.850972,3.5997 -0.445975,2.4751 -4.186398,3.8873 z"
           style="fill:#ffffff;fill-opacity:1;stroke:none" />
        <path
           style="fill:#ffffff;fill-opacity:1;stroke:none"
           d="m 11.207139,1046.2546 c 0.553146,-2.0419 -0.149072,-1.5022 3.84005,-2.8449 -1.64773,2.5812 -1.421906,2.3066 -3.84005,2.8449 z"
           id="path3902" />
        <path
           id="path3904"
           d="m 11.37721,1048.1317 c 0.191053,-2.1078 1.522753,-0.9238 3.326063,-2.8323 -0.962907,2.3945 -1.163688,2.55 -3.326063,2.8323 z"
           style="fill:#ffffff;fill-opacity:1;stroke:none" />
        <path
           style="fill:#ffffff;fill-opacity:1;stroke:none"
           d="m 12.00149,1050.2027 c -0.17385,-1.4476 0.04218,-1.3804 2.251345,-2.2289 -0.782321,3.0349 -0.711261,1.8361 -2.251345,2.2289 z"
           id="path3906-2" />
        <path
           style="fill:#ffffff;fill-opacity:1;stroke:none"
           d="m 3.6219661,1046.9293 c -1.3064295,3.8133 -0.8772511,3.7074 -3.3726721,4.5398 0.9475169,-2.8968 0.64021428,-3.8492 3.3726721,-4.5398 z"
           id="path3908-6" />
      </g>
      <g
         transform="matrix(1,0,0,0.96832781,0.189732,32.615833)"
         id="g4519">
        <path
           id="path3040"
           d="m 14.331069,1039.0629 c 0,0.8926 -0.764728,1.616 -1.708067,1.616 -0.94334,0 -1.708068,-0.7234 -1.708068,-1.616 0,-0.8925 0.764728,-1.6161 1.708068,-1.6161 0.943339,0 1.708067,0.7236 1.708067,1.6161 z"
           style="fill:url(#linearGradient4647);fill-opacity:1;stroke:none" />
        <path
           id="path3050"
           d="m 10.871473,1044.4291 c -0.9622548,-7.3853 0.63755,-5.706 -10.622179,-7.6979 1.4362026,9.6018 0.41209884,8.0149 10.622179,7.6979 z"
           style="fill:url(#linearGradient4649);fill-opacity:1;stroke:none" />
        <path
           style="fill:url(#linearGradient4651);fill-opacity:1;stroke:none"
           d="m 10.914935,1044.9472 c -1.8426231,6.7784 -0.668205,4.0442 -7.9188255,6.193 1.6244605,-6.8168 1.8487387,-5.8739 7.9188255,-6.193 z"
           id="path3052" />
        <path
           style="fill:url(#linearGradient4653);fill-opacity:1;stroke:none"
           d="m 11.077482,1044.1646 c 0.595555,-3.3471 1.762871,-2.4255 4.186398,-3.8873 -0.850972,3.5997 -0.445975,2.4751 -4.186398,3.8873 z"
           id="path3859" />
        <path
           id="path3861"
           d="m 11.207139,1046.2546 c 0.553146,-2.0419 -0.149072,-1.5022 3.84005,-2.8449 -1.64773,2.5812 -1.421906,2.3066 -3.84005,2.8449 z"
           style="fill:url(#linearGradient4655);fill-opacity:1;stroke:none" />
        <path
           style="fill:url(#linearGradient4657);fill-opacity:1;stroke:none"
           d="m 11.37721,1048.1317 c 0.191053,-2.1078 1.522753,-0.9238 3.326063,-2.8323 -0.962907,2.3945 -1.163688,2.55 -3.326063,2.8323 z"
           id="path3863" />
        <path
           id="path3865"
           d="m 12.00149,1050.2027 c -0.17385,-1.4476 0.04218,-1.3804 2.251345,-2.2289 -0.782321,3.0349 -0.711261,1.8361 -2.251345,2.2289 z"
           style="fill:url(#linearGradient4659);fill-opacity:1;stroke:none" />
        <path
           id="path3867"
           d="m 3.6219661,1046.9293 c -1.3064295,3.8133 -0.8772511,3.7074 -3.3726721,4.5398 0.9475169,-2.8968 0.64021428,-3.8492 3.3726721,-4.5398 z"
           style="fill:url(#linearGradient4661);fill-opacity:1;stroke:none" />
      </g>
    </g>
  </g>
  <g
     id="repeat"
     transform="translate(0,-452.36218)">
    <path
       style="fill:#d8d8d8;fill-opacity:1"
       d="m 390,688.36218 v 2 h -7 c -2.58016,0 -4,1.44194 -4,4 v 1.5625 l 2,-1.5625 c 0,-1.35355 0.64645,-2 2,-2 h 7 v 2 l 4,-3 z m 4,4.4375 -2,1.5625 c 0,1.35355 -0.64645,2 -2,2 h -7 v -2 l -4,3 4,3 v -2 h 7 c 2.58016,0 4,-1.44194 4,-4 z"
       id="path4017" />
    <path
       id="path3128"
       d="m 390,687.36218 v 2 h -7 c -2.58016,0 -4,1.44194 -4,4 v 1.5625 l 2,-1.5625 c 0,-1.35355 0.64645,-2 2,-2 h 7 v 2 l 4,-3 z m 4,4.4375 -2,1.5625 c 0,1.35355 -0.64645,2 -2,2 h -7 v -2 l -4,3 4,3 v -2 h 7 c 2.58016,0 4,-1.44194 4,-4 z"
       style="fill:url(#linearGradient4009);fill-opacity:1" />
  </g>
  <g
     id="shuffle"
     transform="translate(0,-452.36218)">
    <path
       style="fill:#d8d8d8;fill-opacity:1"
       d="m 368,688.36218 v 2 h -1 c -4,0 -5,5 -8,5 h -2 v 2 h 2 c 4,0 5,-5 8,-5 h 1 v 2 l 4,-3 z m 0,6 v 2 h -1 c -0.97633,0 -1.71248,-0.5668 -2.4375,-1.28125 l -1.28125,1.46875 c 0.96911,0.97815 2.09598,1.8125 3.71875,1.8125 h 1 v 2 l 4,-3 z m -11,-3 v 2 h 2 c 0.50346,0 0.92931,0.17188 1.34375,0.40625 l 1.34375,-1.5 c -0.74407,-0.53748 -1.60089,-0.90625 -2.6875,-0.90625 z"
       id="path4019" />
    <path
       id="path3919"
       d="m 368,687.36218 v 2 h -1 c -4,0 -5,5 -8,5 h -2 v 2 h 2 c 4,0 5,-5 8,-5 h 1 v 2 l 4,-3 z m 0,6 v 2 h -1 c -0.97633,0 -1.71248,-0.5668 -2.4375,-1.28125 l -1.28125,1.46875 c 0.96911,0.97815 2.09598,1.8125 3.71875,1.8125 h 1 v 2 l 4,-3 z m -11,-3 v 2 h 2 c 0.50346,0 0.92931,0.17188 1.34375,0.40625 l 1.34375,-1.5 c -0.74407,-0.53748 -1.60089,-0.90625 -2.6875,-0.90625 z"
       style="fill:url(#linearGradient4007);fill-opacity:1" />
  </g>
  <g
     id="g3624"
     transform="translate(-199,6)">
    <rect
       style="fill:#dedede;fill-opacity:1"
       id="rect2516"
       width="2"
       height="2"
       x="611"
       y="248"
       rx="0.8687036"
       ry="0.8687036" />
    <rect
       style="fill:#2c2c2c;fill-opacity:1"
       id="rect1162"
       width="2"
       height="2"
       x="611"
       y="247"
       rx="0.87248564"
       ry="0.87248564" />
  </g>
  <g
     id="splitter">
    <use
       x="0"
       y="0"
       xlink:href="#g3624"
       id="use3626"
       transform="translate(12)" />
    <use
       x="0"
       y="0"
       xlink:href="#use3626"
       id="use3628"
       transform="translate(4)" />
    <use
       x="0"
       y="0"
       xlink:href="#use3628"
       id="use3630"
       transform="translate(4)" />
  </g>
  <g
     id="sizegrip"
     transform="translate(24)">
    <g
       id="g6758"
       transform="translate(180,2)">
      <use
         x="0"
         y="0"
         xlink:href="#g3624"
         id="use6752"
         transform="translate(12)" />
      <use
         x="0"
         y="0"
         xlink:href="#use3626"
         id="use6754"
         transform="translate(4)" />
      <use
         x="0"
         y="0"
         xlink:href="#use3628"
         id="use6756"
         transform="translate(4)" />
    </g>
    <use
       x="0"
       y="0"
       xlink:href="#use3626"
       id="use6762"
       transform="translate(184,-2)" />
    <use
       x="0"
       y="0"
       xlink:href="#use3628"
       id="use6764"
       transform="translate(184,-2)" />
    <use
       x="0"
       y="0"
       xlink:href="#use3628"
       id="use6772"
       transform="translate(184,-6)" />
  </g>
  <g
     id="play">
    <path
       id="path3996"
       d="m 190,236 v 12 l 12,-6 z"
       style="fill:#d8d8d8;fill-opacity:1;stroke:none" />
    <path
       style="fill:url(#linearGradient4243);fill-opacity:1;stroke:none"
       d="m 190,235 v 12 l 12,-6 z"
       id="path3998" />
    <rect
       style="opacity:0;fill:#ffffff"
       id="rect801"
       width="13"
       height="13"
       x="189"
       y="235" />
  </g>
  <g
     id="minimize"
     style="fill:#00ff00">
    <rect
       style="opacity:0;fill:#00ff00;fill-opacity:0.990453"
       id="rect1467"
       width="8"
       height="9"
       x="619"
       y="144"
       transform="translate(-40)" />
    <g
       id="g6234"
       transform="translate(40,-32.36218)"
       style="fill:#00ff00">
      <path
         style="fill:#00ff00;stroke:#ffffff;stroke-width:2;stroke-linecap:butt;stroke-linejoin:miter;stroke-miterlimit:4;stroke-dasharray:none;stroke-opacity:1"
         d="m 539,181.36218 h 8"
         id="path4433" />
      <path
         id="path4423"
         d="m 539,180.36218 h 8"
         style="fill:#00ff00;stroke:url(#linearGradient4441);stroke-width:2;stroke-linecap:butt;stroke-linejoin:miter;stroke-miterlimit:4;stroke-dasharray:none;stroke-opacity:1" />
    </g>
  </g>
  <g
     id="close">
    <rect
       style="opacity:0;fill:#00ff00;fill-opacity:1;stroke:none;stroke-width:0.803;stroke-dasharray:none;stroke-opacity:1"
       id="rect37892"
       width="8"
       height="9"
       x="619"
       y="144" />
    <g
       id="g41179"
       transform="translate(0,1)">
      <path
         style="opacity:1;fill:#ffffff;fill-opacity:1;stroke:none;stroke-width:0.803;stroke-dasharray:none;stroke-opacity:1"
         d="m 620.5,144 -1.5,1.5 6.5,6.5 1.5,-1.5 z"
         id="path41175" />
      <path
         style="opacity:1;fill:#ffffff;fill-opacity:1;stroke:none;stroke-width:0.803;stroke-dasharray:none;stroke-opacity:1"
         d="m 625.5,144 1.5,1.5 -6.5,6.5 -1.5,-1.5 z"
         id="path41177" />
    </g>
    <g
       id="g41173"
       transform="matrix(1,0,0,-1,0,296)">
      <path
         style="opacity:1;fill:url(#linearGradient41198);fill-opacity:1;stroke:none;stroke-width:0.803;stroke-dasharray:none;stroke-opacity:1"
         d="m 625.5,144 1.5,1.5 -6.5,6.5 -1.5,-1.5 z"
         id="path41169" />
      <path
         style="opacity:1;fill:url(#linearGradient43380);fill-opacity:1;stroke:none;stroke-width:0.803;stroke-dasharray:none;stroke-opacity:1"
         d="m 620.5,144 -1.5,1.5 6.5,6.5 1.5,-1.5 z"
         id="path43378" />
    </g>
  </g>
</svg>
